<svg xmlns="http://www.w3.org/2000/svg" width="400" height="362.423" viewBox="0 0 400 362.423">
  <path id="Path_5829" data-name="Path 5829" d="M472.381,457.014a.087.087,0,0,1-.055.036c-.019.019-.053.036-.073.055l-.017.019c-.036.017-.055.036-.092.055-.072.055-.107.145.13-.055.162-.147.162-.147.107-.109m18.805,53.966h-.727a18.747,18.747,0,0,0-18.913,18.7v.164c0,3.54.036,6.461.036,9.347v.055c.036,3.956.036,7.66-.09,12.452a4.012,4.012,0,0,1-.038.689,14.3,14.3,0,0,1-.906,3.994v2.252a15.97,15.97,0,0,1-5.21,3.92,2.321,2.321,0,0,1-.435.164,12.438,12.438,0,0,1-13.085-.382c-.058,0-.058,0-.058-.055a14.918,14.918,0,0,1-5.3-4.265v-5.336a25.051,25.051,0,0,1-.2-3.576V367.434a109.074,109.074,0,0,0-1.87-19.95,103.822,103.822,0,0,0-17.442-41.222c-.819-1.216-1.725-2.378-2.615-3.54a.281.281,0,0,1-.183-.162c-1.252-1.563-2.5-3.069-3.828-4.521a45.933,45.933,0,0,0-3.286-3.5c-.346-.382-.689-.727-1.071-1.109-.979-.96-2.015-1.906-3.05-2.849a1.344,1.344,0,0,0-.343-.309c-.964-.853-1.943-1.725-2.943-2.487-.943-.78-1.941-1.561-2.922-2.324a106.512,106.512,0,0,0-52.259-20.892c-1.071-.145-2.16-.273-3.231-.345-1.38-.147-2.8-.273-4.175-.309-1.725-.09-3.45-.128-5.173-.128A107.651,107.651,0,0,0,236.8,347.921a65.774,65.774,0,0,0-1,11.417,66.471,66.471,0,0,0,26.757,53.332,65.558,65.558,0,0,1-25.72-27.446.342.342,0,0,1-.13-.254c-.781-1.561-1.506-3.141-2.16-4.738-.038-.055-.038-.128-.09-.183a.489.489,0,0,0-.019.164.71.71,0,0,1-.019-.2c-.815-1.977-1.5-4.011-2.16-6.118a65.631,65.631,0,0,1-2.576-17.226,94.921,94.921,0,0,1-.6-10.473h-5.353a1.516,1.516,0,0,0-.128.563,6.287,6.287,0,0,0-.164.689c.038-.435.038-.817.09-1.252H162.09a60.562,60.562,0,0,0-25.2,5.555,50.59,50.59,0,0,0-27.537,45.017V626.208h62.952V599.852a4.257,4.257,0,0,1-.053-.817,3.878,3.878,0,0,1,.053-.78v-51.1a4.161,4.161,0,0,1-.053-.817,3.694,3.694,0,0,1,.053-.761v-8.66l.038,7.57a3.764,3.764,0,0,1,.036-.635,5.675,5.675,0,0,1,.183-1.506c-.038-.056-.038-.092,0-.128a10.1,10.1,0,0,1,.216-1.433c.09-.437.164-.817.254-1.2a7.139,7.139,0,0,1,.435-1.632,2.341,2.341,0,0,1,.217-.908,29.622,29.622,0,0,1,1.073-2.977,13.706,13.706,0,0,1,.943-1.941c.126-.292.309-.6.473-.91a17.4,17.4,0,0,1,1.215-2.015,2.977,2.977,0,0,1,.346-.527,27.1,27.1,0,0,1,1.67-2.231c.652-.727,1.288-1.506,2.034-2.2a15.652,15.652,0,0,1,2.2-2.032,13.349,13.349,0,0,1,2.414-1.8,30.314,30.314,0,0,1,17.534-5.483,31.292,31.292,0,0,1,31.276,31.276v80h62.461V468.794a2.622,2.622,0,0,0,1,1.162c2.231,1,4.519,1.943,6.845,2.76l.036.055a3.15,3.15,0,0,1,.4.126l.254.09a104.2,104.2,0,0,0,24.035,5.5l20.982,5.265c.943.254,1.855.473,2.8.78h.055a.048.048,0,0,0,.072,0,.068.068,0,0,0,.09,0,.071.071,0,0,0,.092,0,.134.134,0,0,0,.089.038,34.982,34.982,0,0,1,23.127,29.587h.126v42.059c0,.036,0,.036.055.126l-.055.036.055.055-.055.036.055.038-.055.055.055.036a78.282,78.282,0,0,0,1.454,11.671,69.485,69.485,0,0,0,1.851,7.334,75.971,75.971,0,0,0,10.166,21.364,63.884,63.884,0,0,0,17.533,17.064c1,.6,2,1.2,3.033,1.8a51.9,51.9,0,0,0,6.461,3.2c.981.435,1.979.817,3.015,1.162a72.04,72.04,0,0,0,24.541,4.048c.834,0,1.6,0,2.378-.036h.252a65.831,65.831,0,0,0,39.336-16.12h.038a66.2,66.2,0,0,0,21.2-34.852c.036-.164.036-.29.09-.471a46.592,46.592,0,0,0,.636-7.715V529.677a18.816,18.816,0,0,0-18.171-18.7M358.023,388.236a15.7,15.7,0,1,1,15.721-15.683,15.686,15.686,0,0,1-15.721,15.683" transform="translate(-109.357 -263.785)" fill="#fcb614" opacity="0.05"/>
</svg>
