<svg xmlns="http://www.w3.org/2000/svg" xmlns:xlink="http://www.w3.org/1999/xlink" width="1920" height="1080" viewBox="0 0 1920 1080">
  <defs>
    <clipPath id="clip-path">
      <rect id="Rectangle_738" data-name="Rectangle 738" width="1920" height="1080" transform="translate(-5786 8530)" fill="rgba(255,255,255,0)"/>
    </clipPath>
  </defs>
  <g id="Mask_Group_6" data-name="Mask Group 6" transform="translate(5786 -8530)" opacity="0.5" clip-path="url(#clip-path)">
    <g id="Group_822" data-name="Group 822">
      <g id="Group_807" data-name="Group 807" transform="translate(-5340.466 8791.751)">
        <path id="Path_6689" data-name="Path 6689" d="M678.637,1087.349a1.888,1.888,0,1,1-1.88,1.888A1.883,1.883,0,0,1,678.637,1087.349Z" transform="translate(-676.758 -1029.822)" fill="#ff61d6"/>
        <path id="Path_6690" data-name="Path 6690" d="M678.637,1079.224a1.888,1.888,0,1,1-1.88,1.887A1.883,1.883,0,0,1,678.637,1079.224Z" transform="translate(-676.758 -1033.202)" fill="#ff61d6"/>
        <path id="Path_6691" data-name="Path 6691" d="M678.637,1071.1a1.888,1.888,0,1,1-1.88,1.888A1.883,1.883,0,0,1,678.637,1071.1Z" transform="translate(-676.758 -1036.583)" fill="#ff61d6"/>
        <path id="Path_6692" data-name="Path 6692" d="M678.637,1062.974a1.888,1.888,0,1,1-1.88,1.888A1.883,1.883,0,0,1,678.637,1062.974Z" transform="translate(-676.758 -1039.963)" fill="#ff61d6"/>
        <path id="Path_6693" data-name="Path 6693" d="M678.637,1054.849a1.888,1.888,0,1,1-1.88,1.888A1.883,1.883,0,0,1,678.637,1054.849Z" transform="translate(-676.758 -1043.344)" fill="#ff61d6"/>
        <path id="Path_6694" data-name="Path 6694" d="M678.637,1046.724a1.888,1.888,0,1,1-1.88,1.887A1.883,1.883,0,0,1,678.637,1046.724Z" transform="translate(-676.758 -1046.724)" fill="#ff61d6"/>
        <path id="Path_6695" data-name="Path 6695" d="M686.345,1087.349a1.888,1.888,0,1,1-1.878,1.888A1.882,1.882,0,0,1,686.345,1087.349Z" transform="translate(-673.605 -1029.822)" fill="#ff61d6"/>
        <path id="Path_6696" data-name="Path 6696" d="M686.345,1079.224a1.888,1.888,0,1,1-1.878,1.887A1.882,1.882,0,0,1,686.345,1079.224Z" transform="translate(-673.605 -1033.202)" fill="#ff61d6"/>
        <path id="Path_6697" data-name="Path 6697" d="M686.345,1071.1a1.888,1.888,0,1,1-1.878,1.888A1.883,1.883,0,0,1,686.345,1071.1Z" transform="translate(-673.605 -1036.583)" fill="#ff61d6"/>
        <path id="Path_6698" data-name="Path 6698" d="M686.345,1062.974a1.888,1.888,0,1,1-1.878,1.888A1.882,1.882,0,0,1,686.345,1062.974Z" transform="translate(-673.605 -1039.963)" fill="#ff61d6"/>
        <path id="Path_6699" data-name="Path 6699" d="M686.345,1054.849a1.888,1.888,0,1,1-1.878,1.888A1.883,1.883,0,0,1,686.345,1054.849Z" transform="translate(-673.605 -1043.344)" fill="#ff61d6"/>
        <path id="Path_6700" data-name="Path 6700" d="M686.345,1046.724a1.888,1.888,0,1,1-1.878,1.887A1.882,1.882,0,0,1,686.345,1046.724Z" transform="translate(-673.605 -1046.724)" fill="#ff61d6"/>
        <path id="Path_6701" data-name="Path 6701" d="M694.053,1087.349a1.888,1.888,0,1,1-1.878,1.888A1.884,1.884,0,0,1,694.053,1087.349Z" transform="translate(-670.453 -1029.822)" fill="#ff61d6"/>
        <path id="Path_6702" data-name="Path 6702" d="M694.053,1079.224a1.888,1.888,0,1,1-1.878,1.887A1.883,1.883,0,0,1,694.053,1079.224Z" transform="translate(-670.453 -1033.202)" fill="#ff61d6"/>
        <path id="Path_6703" data-name="Path 6703" d="M694.053,1071.1a1.888,1.888,0,1,1-1.878,1.888A1.884,1.884,0,0,1,694.053,1071.1Z" transform="translate(-670.453 -1036.583)" fill="#ff61d6"/>
        <path id="Path_6704" data-name="Path 6704" d="M694.053,1062.974a1.888,1.888,0,1,1-1.878,1.888A1.884,1.884,0,0,1,694.053,1062.974Z" transform="translate(-670.453 -1039.963)" fill="#ff61d6"/>
        <path id="Path_6705" data-name="Path 6705" d="M694.053,1054.849a1.888,1.888,0,1,1-1.878,1.888A1.884,1.884,0,0,1,694.053,1054.849Z" transform="translate(-670.453 -1043.344)" fill="#ff61d6"/>
        <path id="Path_6706" data-name="Path 6706" d="M694.053,1046.724a1.888,1.888,0,1,1-1.878,1.887A1.884,1.884,0,0,1,694.053,1046.724Z" transform="translate(-670.453 -1046.724)" fill="#ff61d6"/>
      </g>
      <g id="Group_808" data-name="Group 808" transform="translate(-4891 8625.078) rotate(90)">
        <rect id="Rectangle_452" data-name="Rectangle 452" width="3.097" height="3.082" transform="translate(0)" fill="#444"/>
        <g id="Group_805" data-name="Group 805" transform="translate(0 21.748)">
          <rect id="Rectangle_453" data-name="Rectangle 453" width="3.097" height="3.081" transform="translate(0)" fill="#444"/>
          <rect id="Rectangle_454" data-name="Rectangle 454" width="3.097" height="3.081" transform="translate(0 21.749)" fill="#444"/>
          <rect id="Rectangle_455" data-name="Rectangle 455" width="3.097" height="3.082" transform="translate(0 43.497)" fill="#444"/>
          <rect id="Rectangle_456" data-name="Rectangle 456" width="3.097" height="3.082" transform="translate(0 65.246)" fill="#444"/>
        </g>
      </g>
      <path id="Path_6707" data-name="Path 6707" d="M654.788,996.938h-5.1v-5.121h-5.3v5.121h-5.1v5.324h5.1v5.121h5.3v-5.121h5.1Z" transform="translate(-6046.634 7972.953)" fill="#444" opacity="0.79"/>
      <g id="Group_810" data-name="Group 810" transform="translate(-5555.575 8783.969)">
        <rect id="Rectangle_459" data-name="Rectangle 459" width="15.488" height="5.324" transform="translate(0 5.121)" fill="#f2f2f2"/>
        <rect id="Rectangle_460" data-name="Rectangle 460" width="15.565" height="5.297" transform="translate(5.095 15.565) rotate(-90)" fill="#f2f2f2"/>
      </g>
      <g id="Group_811" data-name="Group 811" transform="translate(-5023.301 8749.983)">
        <rect id="Rectangle_461" data-name="Rectangle 461" width="15.488" height="5.324" transform="translate(0 5.121)" fill="#61caff"/>
        <rect id="Rectangle_462" data-name="Rectangle 462" width="15.566" height="5.297" transform="translate(5.095 15.566) rotate(-90)" fill="#61caff"/>
      </g>
      <g id="Group_809" data-name="Group 809" transform="translate(-5691 8625.078)">
        <line id="Line_2" data-name="Line 2" y1="79.942" x2="75.851" transform="translate(0 7.18)" fill="none" stroke="#444" stroke-miterlimit="10" stroke-width="0.21"/>
        <line id="Line_3" data-name="Line 3" y1="79.942" x2="75.851" transform="translate(22.798 3.59)" fill="none" stroke="#444" stroke-miterlimit="10" stroke-width="0.21"/>
        <line id="Line_4" data-name="Line 4" y1="79.942" x2="75.851" transform="translate(45.597)" fill="none" stroke="#444" stroke-miterlimit="10" stroke-width="0.21"/>
      </g>
      <circle id="Ellipse_181" data-name="Ellipse 181" cx="20" cy="20" r="20" transform="translate(-5651.411 8984.419)" fill="#ff61d6"/>
      <line id="Line_23" data-name="Line 23" y1="79.942" x2="75.851" transform="translate(-5172.723 8888.418)" fill="none" stroke="#444" stroke-miterlimit="10" stroke-width="0.21"/>
      <line id="Line_24" data-name="Line 24" y1="79.942" x2="75.851" transform="translate(-5149.925 8884.828)" fill="none" stroke="#444" stroke-miterlimit="10" stroke-width="0.21"/>
      <g id="Group_804" data-name="Group 804" transform="translate(-5256.117 8682.883)">
        <rect id="Rectangle_735" data-name="Rectangle 735" width="3.082" height="3.097" fill="#444"/>
        <rect id="Rectangle_736" data-name="Rectangle 736" width="3.082" height="3.097" transform="translate(0 21.857)" fill="#444"/>
        <rect id="Rectangle_737" data-name="Rectangle 737" width="3.082" height="3.097" transform="translate(0 43.716)" fill="#444"/>
      </g>
      <g id="Group_806" data-name="Group 806" transform="translate(-4916.48 8991.698)">
        <path id="Path_6833" data-name="Path 6833" d="M678.637,1062.974a1.888,1.888,0,1,1-1.88,1.888A1.883,1.883,0,0,1,678.637,1062.974Z" transform="translate(-676.758 -1039.963)" fill="#ff61d6"/>
        <path id="Path_6834" data-name="Path 6834" d="M678.637,1054.849a1.888,1.888,0,1,1-1.88,1.888A1.883,1.883,0,0,1,678.637,1054.849Z" transform="translate(-676.758 -1043.344)" fill="#ff61d6"/>
        <path id="Path_6835" data-name="Path 6835" d="M678.637,1046.724a1.888,1.888,0,1,1-1.88,1.887A1.883,1.883,0,0,1,678.637,1046.724Z" transform="translate(-676.758 -1046.724)" fill="#ff61d6"/>
        <path id="Path_6836" data-name="Path 6836" d="M686.345,1062.974a1.888,1.888,0,1,1-1.878,1.888A1.882,1.882,0,0,1,686.345,1062.974Z" transform="translate(-673.605 -1039.963)" fill="#ff61d6"/>
        <path id="Path_6837" data-name="Path 6837" d="M686.345,1054.849a1.888,1.888,0,1,1-1.878,1.888A1.883,1.883,0,0,1,686.345,1054.849Z" transform="translate(-673.605 -1043.344)" fill="#ff61d6"/>
        <path id="Path_6838" data-name="Path 6838" d="M686.345,1046.724a1.888,1.888,0,1,1-1.878,1.887A1.882,1.882,0,0,1,686.345,1046.724Z" transform="translate(-673.605 -1046.724)" fill="#ff61d6"/>
        <path id="Path_6839" data-name="Path 6839" d="M694.053,1062.974a1.888,1.888,0,1,1-1.878,1.888A1.884,1.884,0,0,1,694.053,1062.974Z" transform="translate(-670.453 -1039.963)" fill="#ff61d6"/>
        <path id="Path_6840" data-name="Path 6840" d="M694.053,1054.849a1.888,1.888,0,1,1-1.878,1.888A1.884,1.884,0,0,1,694.053,1054.849Z" transform="translate(-670.453 -1043.344)" fill="#ff61d6"/>
        <path id="Path_6841" data-name="Path 6841" d="M694.053,1046.724a1.888,1.888,0,1,1-1.878,1.887A1.884,1.884,0,0,1,694.053,1046.724Z" transform="translate(-670.453 -1046.724)" fill="#ff61d6"/>
      </g>
      <g id="Group_807-2" data-name="Group 807" transform="translate(-5267.014 9284.84)">
        <path id="Path_6689-2" data-name="Path 6689" d="M678.636,1087.349a1.855,1.855,0,1,0,1.88,1.855A1.867,1.867,0,0,0,678.636,1087.349Z" transform="translate(-655.036 -1030.827)" fill="#ff61d6"/>
        <path id="Path_6690-2" data-name="Path 6690" d="M678.636,1079.224a1.856,1.856,0,1,0,1.88,1.854A1.867,1.867,0,0,0,678.636,1079.224Z" transform="translate(-655.036 -1034.006)" fill="#ff61d6"/>
        <path id="Path_6691-2" data-name="Path 6691" d="M678.636,1071.1a1.856,1.856,0,1,0,1.88,1.855A1.867,1.867,0,0,0,678.636,1071.1Z" transform="translate(-655.036 -1037.186)" fill="#ff61d6"/>
        <path id="Path_6692-2" data-name="Path 6692" d="M678.636,1062.974a1.855,1.855,0,1,0,1.88,1.855A1.867,1.867,0,0,0,678.636,1062.974Z" transform="translate(-655.036 -1040.365)" fill="#ff61d6"/>
        <path id="Path_6693-2" data-name="Path 6693" d="M678.636,1054.849a1.855,1.855,0,1,0,1.88,1.855A1.867,1.867,0,0,0,678.636,1054.849Z" transform="translate(-655.036 -1043.545)" fill="#ff61d6"/>
        <path id="Path_6694-2" data-name="Path 6694" d="M678.636,1046.724a1.855,1.855,0,1,0,1.88,1.854A1.867,1.867,0,0,0,678.636,1046.724Z" transform="translate(-655.036 -1046.724)" fill="#ff61d6"/>
        <path id="Path_6695-2" data-name="Path 6695" d="M686.345,1087.349a1.855,1.855,0,1,0,1.878,1.855A1.866,1.866,0,0,0,686.345,1087.349Z" transform="translate(-673.605 -1030.827)" fill="#ff61d6"/>
        <path id="Path_6696-2" data-name="Path 6696" d="M686.345,1079.224a1.855,1.855,0,1,0,1.878,1.854A1.866,1.866,0,0,0,686.345,1079.224Z" transform="translate(-673.605 -1034.006)" fill="#ff61d6"/>
        <path id="Path_6697-2" data-name="Path 6697" d="M686.345,1071.1a1.856,1.856,0,1,0,1.878,1.855A1.866,1.866,0,0,0,686.345,1071.1Z" transform="translate(-673.605 -1037.186)" fill="#ff61d6"/>
        <path id="Path_6698-2" data-name="Path 6698" d="M686.345,1062.974a1.855,1.855,0,1,0,1.878,1.855A1.866,1.866,0,0,0,686.345,1062.974Z" transform="translate(-673.605 -1040.365)" fill="#ff61d6"/>
        <path id="Path_6699-2" data-name="Path 6699" d="M686.345,1054.849a1.855,1.855,0,1,0,1.878,1.855A1.866,1.866,0,0,0,686.345,1054.849Z" transform="translate(-673.605 -1043.545)" fill="#ff61d6"/>
        <path id="Path_6700-2" data-name="Path 6700" d="M686.345,1046.724a1.855,1.855,0,1,0,1.878,1.854A1.866,1.866,0,0,0,686.345,1046.724Z" transform="translate(-673.605 -1046.724)" fill="#ff61d6"/>
        <path id="Path_6701-2" data-name="Path 6701" d="M694.054,1087.349a1.855,1.855,0,1,0,1.878,1.855A1.867,1.867,0,0,0,694.054,1087.349Z" transform="translate(-692.175 -1030.827)" fill="#ff61d6"/>
        <path id="Path_6702-2" data-name="Path 6702" d="M694.054,1079.224a1.855,1.855,0,1,0,1.878,1.854A1.867,1.867,0,0,0,694.054,1079.224Z" transform="translate(-692.175 -1034.006)" fill="#ff61d6"/>
        <path id="Path_6703-2" data-name="Path 6703" d="M694.054,1071.1a1.856,1.856,0,1,0,1.878,1.855A1.867,1.867,0,0,0,694.054,1071.1Z" transform="translate(-692.175 -1037.186)" fill="#ff61d6"/>
        <path id="Path_6704-2" data-name="Path 6704" d="M694.054,1062.974a1.855,1.855,0,1,0,1.878,1.855A1.867,1.867,0,0,0,694.054,1062.974Z" transform="translate(-692.175 -1040.365)" fill="#ff61d6"/>
        <path id="Path_6705-2" data-name="Path 6705" d="M694.054,1054.849a1.855,1.855,0,1,0,1.878,1.855A1.867,1.867,0,0,0,694.054,1054.849Z" transform="translate(-692.175 -1043.545)" fill="#ff61d6"/>
        <path id="Path_6706-2" data-name="Path 6706" d="M694.054,1046.724a1.855,1.855,0,1,0,1.878,1.854A1.867,1.867,0,0,0,694.054,1046.724Z" transform="translate(-692.175 -1046.724)" fill="#ff61d6"/>
      </g>
      <g id="Group_808-2" data-name="Group 808" transform="translate(-5600.924 9121.078) rotate(90)">
        <rect id="Rectangle_452-2" data-name="Rectangle 452" width="3.043" height="3.082" transform="translate(0 86.994)" fill="#444"/>
        <g id="Group_805-2" data-name="Group 805" transform="translate(0 0)">
          <rect id="Rectangle_453-2" data-name="Rectangle 453" width="3.043" height="3.081" transform="translate(0 65.246)" fill="#444"/>
          <rect id="Rectangle_454-2" data-name="Rectangle 454" width="3.043" height="3.081" transform="translate(0 43.497)" fill="#444"/>
          <rect id="Rectangle_455-2" data-name="Rectangle 455" width="3.043" height="3.082" transform="translate(0 21.748)" fill="#444"/>
          <rect id="Rectangle_456-2" data-name="Rectangle 456" width="3.043" height="3.082" transform="translate(0 0)" fill="#444"/>
        </g>
      </g>
      <path id="Path_6707-2" data-name="Path 6707" d="M639.3,996.848h5.1v-5.031h5.3v5.031h5.1v5.231h-5.1v5.032h-5.3v-5.032h-5.1Z" transform="translate(-5829.455 8463.018)" fill="#444" opacity="0.79"/>
      <g id="Group_810-2" data-name="Group 810" transform="translate(-5041.913 9277.193)">
        <rect id="Rectangle_459-2" data-name="Rectangle 459" width="15.488" height="5.231" transform="translate(0 5.031)" fill="#f2f2f2"/>
        <rect id="Rectangle_460-2" data-name="Rectangle 460" width="15.294" height="5.297" transform="translate(5.095 15.294) rotate(-90)" fill="#f2f2f2"/>
      </g>
      <g id="Group_811-2" data-name="Group 811" transform="translate(-5574.187 9243.802)">
        <rect id="Rectangle_461-2" data-name="Rectangle 461" width="15.488" height="5.231" transform="translate(0 5.031)" fill="#61caff"/>
        <rect id="Rectangle_462-2" data-name="Rectangle 462" width="15.294" height="5.297" transform="translate(5.095 15.294) rotate(-90)" fill="#61caff"/>
      </g>
      <g id="Group_809-2" data-name="Group 809" transform="translate(-5012.448 9121.078)">
        <line id="Line_2-2" data-name="Line 2" x1="75.851" y1="78.545" transform="translate(45.597 7.054)" fill="none" stroke="#444" stroke-miterlimit="10" stroke-width="0.21"/>
        <line id="Line_3-2" data-name="Line 3" x1="75.851" y1="78.545" transform="translate(22.799 3.527)" fill="none" stroke="#444" stroke-miterlimit="10" stroke-width="0.21"/>
        <line id="Line_4-2" data-name="Line 4" x1="75.851" y1="78.545" fill="none" stroke="#444" stroke-miterlimit="10" stroke-width="0.21"/>
      </g>
      <circle id="Ellipse_181-2" data-name="Ellipse 181" cx="15" cy="15" r="15" transform="translate(-4972.858 9474.141)" fill="#1f3780"/>
      <line id="Line_23-2" data-name="Line 23" x1="75.851" y1="78.545" transform="translate(-5485.128 9379.817)" fill="none" stroke="#444" stroke-miterlimit="10" stroke-width="0.21"/>
      <line id="Line_24-2" data-name="Line 24" x1="75.851" y1="78.545" transform="translate(-5507.926 9376.29)" fill="none" stroke="#444" stroke-miterlimit="10" stroke-width="0.21"/>
      <g id="Group_804-2" data-name="Group 804" transform="translate(-5328.964 9177.873)">
        <rect id="Rectangle_735-2" data-name="Rectangle 735" width="3.082" height="3.043" fill="#444"/>
        <rect id="Rectangle_736-2" data-name="Rectangle 736" width="3.082" height="3.043" transform="translate(0 21.476)" fill="#444"/>
        <rect id="Rectangle_737-2" data-name="Rectangle 737" width="3.082" height="3.043" transform="translate(0 42.953)" fill="#444"/>
      </g>
      <g id="Group_806-2" data-name="Group 806" transform="translate(-5691 9481.293)">
        <path id="Path_6833-2" data-name="Path 6833" d="M678.636,1062.974a1.855,1.855,0,1,0,1.88,1.855A1.867,1.867,0,0,0,678.636,1062.974Z" transform="translate(-655.036 -1040.365)" fill="#ff61d6"/>
        <path id="Path_6834-2" data-name="Path 6834" d="M678.636,1054.849a1.855,1.855,0,1,0,1.88,1.855A1.867,1.867,0,0,0,678.636,1054.849Z" transform="translate(-655.036 -1043.545)" fill="#ff61d6"/>
        <path id="Path_6835-2" data-name="Path 6835" d="M678.636,1046.724a1.855,1.855,0,1,0,1.88,1.854A1.867,1.867,0,0,0,678.636,1046.724Z" transform="translate(-655.036 -1046.724)" fill="#ff61d6"/>
        <path id="Path_6836-2" data-name="Path 6836" d="M686.345,1062.974a1.855,1.855,0,1,0,1.878,1.855A1.866,1.866,0,0,0,686.345,1062.974Z" transform="translate(-673.605 -1040.365)" fill="#ff61d6"/>
        <path id="Path_6837-2" data-name="Path 6837" d="M686.345,1054.849a1.855,1.855,0,1,0,1.878,1.855A1.866,1.866,0,0,0,686.345,1054.849Z" transform="translate(-673.605 -1043.545)" fill="#ff61d6"/>
        <path id="Path_6838-2" data-name="Path 6838" d="M686.345,1046.724a1.855,1.855,0,1,0,1.878,1.854A1.866,1.866,0,0,0,686.345,1046.724Z" transform="translate(-673.605 -1046.724)" fill="#ff61d6"/>
        <path id="Path_6839-2" data-name="Path 6839" d="M694.054,1062.974a1.855,1.855,0,1,0,1.878,1.855A1.867,1.867,0,0,0,694.054,1062.974Z" transform="translate(-692.175 -1040.365)" fill="#ff61d6"/>
        <path id="Path_6840-2" data-name="Path 6840" d="M694.054,1054.849a1.855,1.855,0,1,0,1.878,1.855A1.867,1.867,0,0,0,694.054,1054.849Z" transform="translate(-692.175 -1043.545)" fill="#ff61d6"/>
        <path id="Path_6841-2" data-name="Path 6841" d="M694.054,1046.724a1.855,1.855,0,1,0,1.878,1.854A1.867,1.867,0,0,0,694.054,1046.724Z" transform="translate(-692.175 -1046.724)" fill="#ff61d6"/>
      </g>
      <g id="Group_807-3" data-name="Group 807" transform="translate(-4337.014 9286.945)">
        <path id="Path_6689-3" data-name="Path 6689" d="M678.636,1091.126a1.888,1.888,0,1,1,1.88-1.888A1.883,1.883,0,0,1,678.636,1091.126Z" transform="translate(-655.036 -1087.349)" fill="#ff61d6"/>
        <path id="Path_6690-3" data-name="Path 6690" d="M678.636,1083a1.888,1.888,0,1,1,1.88-1.887A1.883,1.883,0,0,1,678.636,1083Z" transform="translate(-655.036 -1067.719)" fill="#ff61d6"/>
        <path id="Path_6691-3" data-name="Path 6691" d="M678.636,1074.876a1.888,1.888,0,1,1,1.88-1.888A1.883,1.883,0,0,1,678.636,1074.876Z" transform="translate(-655.036 -1048.088)" fill="#ff61d6"/>
        <path id="Path_6692-3" data-name="Path 6692" d="M678.636,1066.751a1.888,1.888,0,1,1,1.88-1.888A1.883,1.883,0,0,1,678.636,1066.751Z" transform="translate(-655.036 -1028.458)" fill="#ff61d6"/>
        <path id="Path_6693-3" data-name="Path 6693" d="M678.636,1058.626a1.888,1.888,0,1,1,1.88-1.888A1.883,1.883,0,0,1,678.636,1058.626Z" transform="translate(-655.036 -1008.828)" fill="#ff61d6"/>
        <path id="Path_6694-3" data-name="Path 6694" d="M678.636,1050.5a1.888,1.888,0,1,1,1.88-1.887A1.883,1.883,0,0,1,678.636,1050.5Z" transform="translate(-655.036 -989.197)" fill="#ff61d6"/>
        <path id="Path_6695-3" data-name="Path 6695" d="M686.345,1091.126a1.888,1.888,0,1,1,1.878-1.888A1.882,1.882,0,0,1,686.345,1091.126Z" transform="translate(-673.605 -1087.349)" fill="#ff61d6"/>
        <path id="Path_6696-3" data-name="Path 6696" d="M686.345,1083a1.888,1.888,0,1,1,1.878-1.887A1.882,1.882,0,0,1,686.345,1083Z" transform="translate(-673.605 -1067.719)" fill="#ff61d6"/>
        <path id="Path_6697-3" data-name="Path 6697" d="M686.345,1074.876a1.888,1.888,0,1,1,1.878-1.888A1.883,1.883,0,0,1,686.345,1074.876Z" transform="translate(-673.605 -1048.088)" fill="#ff61d6"/>
        <path id="Path_6698-3" data-name="Path 6698" d="M686.345,1066.751a1.888,1.888,0,1,1,1.878-1.888A1.882,1.882,0,0,1,686.345,1066.751Z" transform="translate(-673.605 -1028.458)" fill="#ff61d6"/>
        <path id="Path_6699-3" data-name="Path 6699" d="M686.345,1058.626a1.888,1.888,0,1,1,1.878-1.888A1.883,1.883,0,0,1,686.345,1058.626Z" transform="translate(-673.605 -1008.828)" fill="#ff61d6"/>
        <path id="Path_6700-3" data-name="Path 6700" d="M686.345,1050.5a1.888,1.888,0,1,1,1.878-1.887A1.882,1.882,0,0,1,686.345,1050.5Z" transform="translate(-673.605 -989.197)" fill="#ff61d6"/>
        <path id="Path_6701-3" data-name="Path 6701" d="M694.054,1091.126a1.888,1.888,0,1,1,1.878-1.888A1.884,1.884,0,0,1,694.054,1091.126Z" transform="translate(-692.175 -1087.349)" fill="#ff61d6"/>
        <path id="Path_6702-3" data-name="Path 6702" d="M694.054,1083a1.888,1.888,0,1,1,1.878-1.887A1.883,1.883,0,0,1,694.054,1083Z" transform="translate(-692.175 -1067.719)" fill="#ff61d6"/>
        <path id="Path_6703-3" data-name="Path 6703" d="M694.054,1074.876a1.888,1.888,0,1,1,1.878-1.888A1.884,1.884,0,0,1,694.054,1074.876Z" transform="translate(-692.175 -1048.088)" fill="#ff61d6"/>
        <path id="Path_6704-3" data-name="Path 6704" d="M694.054,1066.751a1.888,1.888,0,1,1,1.878-1.888A1.884,1.884,0,0,1,694.054,1066.751Z" transform="translate(-692.175 -1028.458)" fill="#ff61d6"/>
        <path id="Path_6705-3" data-name="Path 6705" d="M694.054,1058.626a1.888,1.888,0,1,1,1.878-1.888A1.884,1.884,0,0,1,694.054,1058.626Z" transform="translate(-692.175 -1008.828)" fill="#ff61d6"/>
        <path id="Path_6706-3" data-name="Path 6706" d="M694.054,1050.5a1.888,1.888,0,1,1,1.878-1.887A1.884,1.884,0,0,1,694.054,1050.5Z" transform="translate(-692.175 -989.197)" fill="#ff61d6"/>
      </g>
      <g id="Group_808-3" data-name="Group 808" transform="translate(-4761 9514.922) rotate(-90)">
        <rect id="Rectangle_452-3" data-name="Rectangle 452" width="3.097" height="3.082" transform="translate(0 0)" fill="#444"/>
        <g id="Group_805-3" data-name="Group 805" transform="translate(0 21.748)">
          <rect id="Rectangle_453-3" data-name="Rectangle 453" width="3.097" height="3.081" transform="translate(0 0)" fill="#444"/>
          <rect id="Rectangle_454-3" data-name="Rectangle 454" width="3.097" height="3.081" transform="translate(0 21.749)" fill="#444"/>
          <rect id="Rectangle_455-3" data-name="Rectangle 455" width="3.097" height="3.082" transform="translate(0 43.497)" fill="#444"/>
          <rect id="Rectangle_456-3" data-name="Rectangle 456" width="3.097" height="3.082" transform="translate(0 65.246)" fill="#444"/>
        </g>
      </g>
      <path id="Path_6707-3" data-name="Path 6707" d="M639.3,1002.262h5.1v5.121h5.3v-5.121h5.1v-5.324h-5.1v-5.121h-5.3v5.121h-5.1Z" transform="translate(-4899.455 8167.848)" fill="#444" opacity="0.79"/>
      <g id="Group_810-3" data-name="Group 810" transform="translate(-4111.913 9340.466)">
        <rect id="Rectangle_459-3" data-name="Rectangle 459" width="15.488" height="5.324" transform="translate(0 5.121)" fill="#f2f2f2"/>
        <rect id="Rectangle_460-3" data-name="Rectangle 460" width="15.565" height="5.297" transform="translate(10.393 0) rotate(90)" fill="#f2f2f2"/>
      </g>
      <g id="Group_811-3" data-name="Group 811" transform="translate(-4644.187 9374.451)">
        <rect id="Rectangle_461-3" data-name="Rectangle 461" width="15.488" height="5.324" transform="translate(0 5.121)" fill="#61caff"/>
        <rect id="Rectangle_462-3" data-name="Rectangle 462" width="15.566" height="5.297" transform="translate(10.393 0) rotate(90)" fill="#61caff"/>
      </g>
      <g id="Group_809-3" data-name="Group 809" transform="translate(-4082.448 9427.801)">
        <line id="Line_2-3" data-name="Line 2" x1="75.851" y2="79.942" transform="translate(45.597 0)" fill="none" stroke="#444" stroke-miterlimit="10" stroke-width="0.21"/>
        <line id="Line_3-3" data-name="Line 3" x1="75.851" y2="79.942" transform="translate(22.799 3.59)" fill="none" stroke="#444" stroke-miterlimit="10" stroke-width="0.21"/>
        <line id="Line_4-3" data-name="Line 4" x1="75.851" y2="79.942" transform="translate(0 7.18)" fill="none" stroke="#444" stroke-miterlimit="10" stroke-width="0.21"/>
      </g>
      <circle id="Ellipse_181-3" data-name="Ellipse 181" cx="17.5" cy="17.5" r="17.5" transform="translate(-4042.858 9114.233)" fill="#fcb614"/>
      <line id="Line_23-3" data-name="Line 23" x1="75.851" y2="79.942" transform="translate(-4555.128 9171.641)" fill="none" stroke="#444" stroke-miterlimit="10" stroke-width="0.21"/>
      <line id="Line_24-3" data-name="Line 24" x1="75.851" y2="79.942" transform="translate(-4577.926 9175.23)" fill="none" stroke="#444" stroke-miterlimit="10" stroke-width="0.21"/>
      <g id="Group_804-3" data-name="Group 804" transform="translate(-4398.964 9410.304)">
        <rect id="Rectangle_735-3" data-name="Rectangle 735" width="3.082" height="3.097" transform="translate(0 43.716)" fill="#444"/>
        <rect id="Rectangle_736-3" data-name="Rectangle 736" width="3.082" height="3.097" transform="translate(0 21.859)" fill="#444"/>
        <rect id="Rectangle_737-3" data-name="Rectangle 737" width="3.082" height="3.097" transform="translate(0 0)" fill="#444"/>
      </g>
      <g id="Group_806-3" data-name="Group 806" transform="translate(-4761 9121.515)">
        <path id="Path_6833-3" data-name="Path 6833" d="M678.636,1066.751a1.888,1.888,0,1,1,1.88-1.888A1.883,1.883,0,0,1,678.636,1066.751Z" transform="translate(-655.036 -1062.974)" fill="#ff61d6"/>
        <path id="Path_6834-3" data-name="Path 6834" d="M678.636,1058.626a1.888,1.888,0,1,1,1.88-1.888A1.883,1.883,0,0,1,678.636,1058.626Z" transform="translate(-655.036 -1043.344)" fill="#ff61d6"/>
        <path id="Path_6835-3" data-name="Path 6835" d="M678.636,1050.5a1.888,1.888,0,1,1,1.88-1.887A1.883,1.883,0,0,1,678.636,1050.5Z" transform="translate(-655.036 -1023.713)" fill="#ff61d6"/>
        <path id="Path_6836-3" data-name="Path 6836" d="M686.345,1066.751a1.888,1.888,0,1,1,1.878-1.888A1.882,1.882,0,0,1,686.345,1066.751Z" transform="translate(-673.605 -1062.974)" fill="#ff61d6"/>
        <path id="Path_6837-3" data-name="Path 6837" d="M686.345,1058.626a1.888,1.888,0,1,1,1.878-1.888A1.883,1.883,0,0,1,686.345,1058.626Z" transform="translate(-673.605 -1043.344)" fill="#ff61d6"/>
        <path id="Path_6838-3" data-name="Path 6838" d="M686.345,1050.5a1.888,1.888,0,1,1,1.878-1.887A1.882,1.882,0,0,1,686.345,1050.5Z" transform="translate(-673.605 -1023.713)" fill="#ff61d6"/>
        <path id="Path_6839-3" data-name="Path 6839" d="M694.054,1066.751a1.888,1.888,0,1,1,1.878-1.888A1.884,1.884,0,0,1,694.054,1066.751Z" transform="translate(-692.175 -1062.974)" fill="#ff61d6"/>
        <path id="Path_6840-3" data-name="Path 6840" d="M694.054,1058.626a1.888,1.888,0,1,1,1.878-1.888A1.884,1.884,0,0,1,694.054,1058.626Z" transform="translate(-692.175 -1043.344)" fill="#ff61d6"/>
        <path id="Path_6841-3" data-name="Path 6841" d="M694.054,1050.5a1.888,1.888,0,1,1,1.878-1.887A1.884,1.884,0,0,1,694.054,1050.5Z" transform="translate(-692.175 -1023.713)" fill="#ff61d6"/>
      </g>
      <g id="Group_807-4" data-name="Group 807" transform="translate(-4410.466 8794.929)">
        <path id="Path_6689-4" data-name="Path 6689" d="M678.637,1091.06a1.855,1.855,0,1,0-1.88-1.855A1.867,1.867,0,0,0,678.637,1091.06Z" transform="translate(-676.758 -1087.349)" fill="#ff61d6"/>
        <path id="Path_6690-4" data-name="Path 6690" d="M678.637,1082.935a1.856,1.856,0,1,0-1.88-1.854A1.867,1.867,0,0,0,678.637,1082.935Z" transform="translate(-676.758 -1067.92)" fill="#ff61d6"/>
        <path id="Path_6691-4" data-name="Path 6691" d="M678.637,1074.81a1.856,1.856,0,1,0-1.88-1.855A1.867,1.867,0,0,0,678.637,1074.81Z" transform="translate(-676.758 -1048.49)" fill="#ff61d6"/>
        <path id="Path_6692-4" data-name="Path 6692" d="M678.637,1066.684a1.855,1.855,0,1,0-1.88-1.855A1.867,1.867,0,0,0,678.637,1066.684Z" transform="translate(-676.758 -1029.061)" fill="#ff61d6"/>
        <path id="Path_6693-4" data-name="Path 6693" d="M678.637,1058.56a1.855,1.855,0,1,0-1.88-1.855A1.867,1.867,0,0,0,678.637,1058.56Z" transform="translate(-676.758 -1009.631)" fill="#ff61d6"/>
        <path id="Path_6694-4" data-name="Path 6694" d="M678.637,1050.435a1.855,1.855,0,1,0-1.88-1.854A1.867,1.867,0,0,0,678.637,1050.435Z" transform="translate(-676.758 -990.202)" fill="#ff61d6"/>
        <path id="Path_6695-4" data-name="Path 6695" d="M686.345,1091.06a1.855,1.855,0,1,0-1.878-1.855A1.866,1.866,0,0,0,686.345,1091.06Z" transform="translate(-673.605 -1087.349)" fill="#ff61d6"/>
        <path id="Path_6696-4" data-name="Path 6696" d="M686.345,1082.935a1.855,1.855,0,1,0-1.878-1.854A1.866,1.866,0,0,0,686.345,1082.935Z" transform="translate(-673.605 -1067.92)" fill="#ff61d6"/>
        <path id="Path_6697-4" data-name="Path 6697" d="M686.345,1074.81a1.856,1.856,0,1,0-1.878-1.855A1.866,1.866,0,0,0,686.345,1074.81Z" transform="translate(-673.605 -1048.49)" fill="#ff61d6"/>
        <path id="Path_6698-4" data-name="Path 6698" d="M686.345,1066.684a1.855,1.855,0,1,0-1.878-1.855A1.866,1.866,0,0,0,686.345,1066.684Z" transform="translate(-673.605 -1029.061)" fill="#ff61d6"/>
        <path id="Path_6699-4" data-name="Path 6699" d="M686.345,1058.56a1.855,1.855,0,1,0-1.878-1.855A1.866,1.866,0,0,0,686.345,1058.56Z" transform="translate(-673.605 -1009.631)" fill="#ff61d6"/>
        <path id="Path_6700-4" data-name="Path 6700" d="M686.345,1050.435a1.855,1.855,0,1,0-1.878-1.854A1.866,1.866,0,0,0,686.345,1050.435Z" transform="translate(-673.605 -990.202)" fill="#ff61d6"/>
        <path id="Path_6701-4" data-name="Path 6701" d="M694.053,1091.06a1.855,1.855,0,1,0-1.878-1.855A1.867,1.867,0,0,0,694.053,1091.06Z" transform="translate(-670.453 -1087.349)" fill="#ff61d6"/>
        <path id="Path_6702-4" data-name="Path 6702" d="M694.053,1082.935a1.855,1.855,0,1,0-1.878-1.854A1.867,1.867,0,0,0,694.053,1082.935Z" transform="translate(-670.453 -1067.92)" fill="#ff61d6"/>
        <path id="Path_6703-4" data-name="Path 6703" d="M694.053,1074.81a1.856,1.856,0,1,0-1.878-1.855A1.867,1.867,0,0,0,694.053,1074.81Z" transform="translate(-670.453 -1048.49)" fill="#ff61d6"/>
        <path id="Path_6704-4" data-name="Path 6704" d="M694.053,1066.684a1.855,1.855,0,1,0-1.878-1.855A1.867,1.867,0,0,0,694.053,1066.684Z" transform="translate(-670.453 -1029.061)" fill="#ff61d6"/>
        <path id="Path_6705-4" data-name="Path 6705" d="M694.053,1058.56a1.855,1.855,0,1,0-1.878-1.855A1.867,1.867,0,0,0,694.053,1058.56Z" transform="translate(-670.453 -1009.631)" fill="#ff61d6"/>
        <path id="Path_6706-4" data-name="Path 6706" d="M694.053,1050.435a1.855,1.855,0,1,0-1.878-1.854A1.867,1.867,0,0,0,694.053,1050.435Z" transform="translate(-670.453 -990.202)" fill="#ff61d6"/>
      </g>
      <g id="Group_808-4" data-name="Group 808" transform="translate(-4051.076 9018.923) rotate(-90)">
        <rect id="Rectangle_452-4" data-name="Rectangle 452" width="3.043" height="3.082" transform="translate(0 86.994)" fill="#444"/>
        <g id="Group_805-4" data-name="Group 805" transform="translate(0 0)">
          <rect id="Rectangle_453-4" data-name="Rectangle 453" width="3.043" height="3.081" transform="translate(0 65.246)" fill="#444"/>
          <rect id="Rectangle_454-4" data-name="Rectangle 454" width="3.043" height="3.081" transform="translate(0 43.497)" fill="#444"/>
          <rect id="Rectangle_455-4" data-name="Rectangle 455" width="3.043" height="3.082" transform="translate(0 21.748)" fill="#444"/>
          <rect id="Rectangle_456-4" data-name="Rectangle 456" width="3.043" height="3.082" transform="translate(0 0)" fill="#444"/>
        </g>
      </g>
      <path id="Path_6707-4" data-name="Path 6707" d="M654.788,1002.079h-5.1v5.031h-5.3v-5.031h-5.1v-5.231h5.1v-5.032h5.3v5.032h5.1Z" transform="translate(-5116.634 7678.055)" fill="#444" opacity="0.79"/>
      <g id="Group_810-4" data-name="Group 810" transform="translate(-4625.575 8847.515)">
        <rect id="Rectangle_459-4" data-name="Rectangle 459" width="15.488" height="5.231" transform="translate(0 5.032)" fill="#f2f2f2"/>
        <rect id="Rectangle_460-4" data-name="Rectangle 460" width="15.294" height="5.297" transform="translate(10.393 0) rotate(90)" fill="#f2f2f2"/>
      </g>
      <g id="Group_811-4" data-name="Group 811" transform="translate(-4093.301 8880.906)">
        <rect id="Rectangle_461-4" data-name="Rectangle 461" width="15.488" height="5.231" transform="translate(0 5.031)" fill="#61caff"/>
        <rect id="Rectangle_462-4" data-name="Rectangle 462" width="15.294" height="5.297" transform="translate(10.393 0) rotate(90)" fill="#61caff"/>
      </g>
      <g id="Group_809-4" data-name="Group 809" transform="translate(-4761 8933.323)">
        <line id="Line_2-4" data-name="Line 2" x2="75.851" y2="78.545" transform="translate(0 0)" fill="none" stroke="#444" stroke-miterlimit="10" stroke-width="0.21"/>
        <line id="Line_3-4" data-name="Line 3" x2="75.851" y2="78.545" transform="translate(22.798 3.527)" fill="none" stroke="#444" stroke-miterlimit="10" stroke-width="0.21"/>
        <line id="Line_4-4" data-name="Line 4" x2="75.851" y2="78.545" transform="translate(45.597 7.054)" fill="none" stroke="#444" stroke-miterlimit="10" stroke-width="0.21"/>
      </g>
      <circle id="Ellipse_181-4" data-name="Ellipse 181" cx="12.5" cy="12.5" r="12.5" transform="translate(-4721.411 8625.234)" fill="#702c8a"/>
      <line id="Line_23-4" data-name="Line 23" x2="75.851" y2="78.545" transform="translate(-4242.723 8681.639)" fill="none" stroke="#444" stroke-miterlimit="10" stroke-width="0.21"/>
      <line id="Line_24-4" data-name="Line 24" x2="75.851" y2="78.545" transform="translate(-4219.925 8685.166)" fill="none" stroke="#444" stroke-miterlimit="10" stroke-width="0.21"/>
      <g id="Group_804-4" data-name="Group 804" transform="translate(-4326.117 8916.132)">
        <rect id="Rectangle_735-4" data-name="Rectangle 735" width="3.082" height="3.043" transform="translate(0 42.952)" fill="#444"/>
        <rect id="Rectangle_736-4" data-name="Rectangle 736" width="3.082" height="3.043" transform="translate(0 21.477)" fill="#444"/>
        <rect id="Rectangle_737-4" data-name="Rectangle 737" width="3.082" height="3.043" transform="translate(0 0)" fill="#444"/>
      </g>
      <g id="Group_806-4" data-name="Group 806" transform="translate(-3986.48 8632.389)">
        <path id="Path_6833-4" data-name="Path 6833" d="M678.637,1066.684a1.855,1.855,0,1,0-1.88-1.855A1.867,1.867,0,0,0,678.637,1066.684Z" transform="translate(-676.758 -1062.974)" fill="#ff61d6"/>
        <path id="Path_6834-4" data-name="Path 6834" d="M678.637,1058.56a1.855,1.855,0,1,0-1.88-1.855A1.867,1.867,0,0,0,678.637,1058.56Z" transform="translate(-676.758 -1043.545)" fill="#ff61d6"/>
        <path id="Path_6835-4" data-name="Path 6835" d="M678.637,1050.435a1.855,1.855,0,1,0-1.88-1.854A1.867,1.867,0,0,0,678.637,1050.435Z" transform="translate(-676.758 -1024.115)" fill="#ff61d6"/>
        <path id="Path_6836-4" data-name="Path 6836" d="M686.345,1066.684a1.855,1.855,0,1,0-1.878-1.855A1.866,1.866,0,0,0,686.345,1066.684Z" transform="translate(-673.605 -1062.974)" fill="#ff61d6"/>
        <path id="Path_6837-4" data-name="Path 6837" d="M686.345,1058.56a1.855,1.855,0,1,0-1.878-1.855A1.866,1.866,0,0,0,686.345,1058.56Z" transform="translate(-673.605 -1043.545)" fill="#ff61d6"/>
        <path id="Path_6838-4" data-name="Path 6838" d="M686.345,1050.435a1.855,1.855,0,1,0-1.878-1.854A1.866,1.866,0,0,0,686.345,1050.435Z" transform="translate(-673.605 -1024.115)" fill="#ff61d6"/>
        <path id="Path_6839-4" data-name="Path 6839" d="M694.053,1066.684a1.855,1.855,0,1,0-1.878-1.855A1.867,1.867,0,0,0,694.053,1066.684Z" transform="translate(-670.453 -1062.974)" fill="#ff61d6"/>
        <path id="Path_6840-4" data-name="Path 6840" d="M694.053,1058.56a1.855,1.855,0,1,0-1.878-1.855A1.867,1.867,0,0,0,694.053,1058.56Z" transform="translate(-670.453 -1043.545)" fill="#ff61d6"/>
        <path id="Path_6841-4" data-name="Path 6841" d="M694.053,1050.435a1.855,1.855,0,1,0-1.878-1.854A1.867,1.867,0,0,0,694.053,1050.435Z" transform="translate(-670.453 -1024.115)" fill="#ff61d6"/>
      </g>
    </g>
  </g>
</svg>
