<svg id="Group_819" data-name="Group 819" xmlns="http://www.w3.org/2000/svg" xmlns:xlink="http://www.w3.org/1999/xlink" width="482" height="360" viewBox="0 0 482 360">
  <defs>
    <clipPath id="clip-path">
      <rect id="Rectangle_734" data-name="Rectangle 734" width="482" height="360" fill="rgba(255,255,255,0)"/>
    </clipPath>
  </defs>
  <g id="Mask_Group_3" data-name="Mask Group 3" clip-path="url(#clip-path)">
    <g id="Group_797" data-name="Group 797" transform="translate(-64.937 2)" opacity="0.15">
      <path id="Path_6637" data-name="Path 6637" d="M922.351,1208.753s64.481-201.451-94.336-182.571S773.593,885.869,620.322,844.4c-166.2-44.962-228.839,95.779-228.839,95.779" transform="translate(-391.483 -835.541)" fill="none" stroke="#702c8a" stroke-miterlimit="10" stroke-width="0.37"/>
      <path id="Path_6638" data-name="Path 6638" d="M921.066,1208.448S985.279,1009,827.483,1027.456a178.069,178.069,0,0,1-36.427.99c-104.737-9.414-32.857-142.814-170.388-180.23-163.626-44.463-225.761,93.42-227.117,94.555" transform="translate(-392.245 -835.541)" fill="none" stroke="#702c8a" stroke-miterlimit="10" stroke-width="0.37"/>
      <path id="Path_6639" data-name="Path 6639" d="M919.78,1208.143s63.946-197.437-92.831-179.413a179.7,179.7,0,0,1-36.123.981c-104.03-9.122-34.287-140.6-169.813-177.684-161.052-43.963-222.683,91.062-225.394,93.331" transform="translate(-393.006 -835.541)" fill="none" stroke="#702c8a" stroke-miterlimit="10" stroke-width="0.37"/>
      <path id="Path_6640" data-name="Path 6640" d="M918.494,1207.838s63.678-195.43-92.078-177.835a181.477,181.477,0,0,1-35.819.973c-103.324-8.831-35.718-138.386-169.239-175.138-158.478-43.463-219.6,88.705-223.671,92.108" transform="translate(-393.767 -835.541)" fill="none" stroke="#702c8a" stroke-miterlimit="10" stroke-width="0.37"/>
      <path id="Path_6641" data-name="Path 6641" d="M917.209,1207.533s63.411-193.423-91.326-176.256a183.519,183.519,0,0,1-35.515.965C687.752,1023.7,753.22,896.068,621.7,859.649,465.8,816.686,405.177,946,399.755,950.533" transform="translate(-394.529 -835.541)" fill="none" stroke="#702c8a" stroke-miterlimit="10" stroke-width="0.37"/>
      <path id="Path_6642" data-name="Path 6642" d="M915.923,1207.228s63.143-191.416-90.573-174.677a185.563,185.563,0,0,1-35.211.956c-101.91-8.248-38.579-133.96-168.09-170.046C468.719,821,408.6,947.449,401.823,953.121" transform="translate(-395.29 -835.541)" fill="none" stroke="#702c8a" stroke-miterlimit="10" stroke-width="0.37"/>
      <path id="Path_6643" data-name="Path 6643" d="M914.637,1206.924s62.876-189.41-89.821-173.1a187.813,187.813,0,0,1-34.907.947c-101.2-7.956-40.009-131.746-167.515-167.5-150.756-41.964-210.371,81.63-218.5,88.436" transform="translate(-396.051 -835.541)" fill="none" stroke="#702c8a" stroke-miterlimit="10" stroke-width="0.37"/>
      <path id="Path_6644" data-name="Path 6644" d="M913.362,1206.619S975.937,1018.9,824.294,1035.1a192.751,192.751,0,0,1-34.6.94c-100.5-7.665-41.44-129.533-166.942-164.955-148.181-41.464-207.292,79.272-216.78,87.213" transform="translate(-396.823 -835.541)" fill="none" stroke="#702c8a" stroke-miterlimit="10" stroke-width="0.37"/>
      <path id="Path_6645" data-name="Path 6645" d="M912.076,1206.314s62.3-185.758-88.316-169.942a195.754,195.754,0,0,1-34.3.931c-99.79-7.373-42.87-127.319-166.367-162.409-145.607-40.964-204.214,76.915-215.057,85.99" transform="translate(-397.584 -835.541)" fill="none" stroke="#702c8a" stroke-miterlimit="10" stroke-width="0.37"/>
      <path id="Path_6646" data-name="Path 6646" d="M910.791,1206.009s62.033-183.791-87.563-168.363a199.021,199.021,0,0,1-33.995.922c-99.084-7.082-44.3-125.105-165.793-159.863C480.407,838.241,422.3,953.262,410.105,963.471" transform="translate(-398.346 -835.541)" fill="none" stroke="#702c8a" stroke-miterlimit="10" stroke-width="0.37"/>
      <path id="Path_6647" data-name="Path 6647" d="M909.505,1205.7s61.762-181.824-86.811-166.784a202.553,202.553,0,0,1-33.691.913c-98.376-6.79-45.731-122.891-165.218-157.316-140.458-39.965-198.058,72.2-211.612,83.542" transform="translate(-399.108 -835.542)" fill="none" stroke="#702c8a" stroke-miterlimit="10" stroke-width="0.37"/>
      <path id="Path_6648" data-name="Path 6648" d="M908.22,1205.4s61.492-179.855-86.059-165.205a206.374,206.374,0,0,1-33.386.905c-97.67-6.5-47.162-120.679-164.644-154.771-137.884-39.465-194.98,69.84-209.89,82.318" transform="translate(-399.869 -835.541)" fill="none" stroke="#702c8a" stroke-miterlimit="10" stroke-width="0.37"/>
      <path id="Path_6649" data-name="Path 6649" d="M906.934,1205.094s61.222-177.885-85.306-163.627a210.444,210.444,0,0,1-33.083.9c-96.963-6.207-48.524-118.7-164.069-152.225-135.231-39.238-191.9,67.483-208.167,81.095" transform="translate(-400.63 -835.541)" fill="none" stroke="#702c8a" stroke-miterlimit="10" stroke-width="0.37"/>
      <path id="Path_6650" data-name="Path 6650" d="M905.647,1204.789s60.952-175.914-84.554-162.048a214.949,214.949,0,0,1-32.778.888c-96.257-5.915-49.949-116.5-163.5-149.679C492.169,855.192,436,959.075,418.376,973.821" transform="translate(-401.39 -835.541)" fill="none" stroke="#702c8a" stroke-miterlimit="10" stroke-width="0.37"/>
      <path id="Path_6651" data-name="Path 6651" d="M904.361,1204.485s60.683-173.942-83.8-160.47a219.773,219.773,0,0,1-32.475.88c-95.55-5.624-51.374-114.306-162.921-147.133C495.1,859.483,439.418,960.528,420.443,976.409" transform="translate(-402.151 -835.541)" fill="none" stroke="#702c8a" stroke-miterlimit="10" stroke-width="0.37"/>
      <path id="Path_6652" data-name="Path 6652" d="M903.074,1204.18s60.414-171.968-83.049-158.891a225.169,225.169,0,0,1-32.171.871c-94.843-5.333-52.8-112.109-162.346-144.587-127.489-37.8-182.668,60.408-203,77.423" transform="translate(-402.911 -835.541)" fill="none" stroke="#702c8a" stroke-miterlimit="10" stroke-width="0.37"/>
      <path id="Path_6653" data-name="Path 6653" d="M901.787,1203.875s60.145-169.992-82.3-157.313a230.678,230.678,0,0,1-31.867.863c-94.137-5.041-54.223-109.911-161.772-142.041-124.909-37.316-179.59,58.05-201.276,76.2" transform="translate(-403.672 -835.541)" fill="none" stroke="#702c8a" stroke-miterlimit="10" stroke-width="0.37"/>
      <path id="Path_6654" data-name="Path 6654" d="M900.5,1203.57s59.876-168.015-81.544-155.734a237.222,237.222,0,0,1-31.563.855c-93.429-4.75-55.648-107.714-161.2-139.5-122.329-36.833-176.512,55.693-199.553,74.977" transform="translate(-404.431 -835.541)" fill="none" stroke="#702c8a" stroke-miterlimit="10" stroke-width="0.37"/>
      <path id="Path_6655" data-name="Path 6655" d="M899.211,1203.265s59.608-166.036-80.791-154.155a244.271,244.271,0,0,1-31.259.846c-92.723-4.458-57.073-105.516-160.623-136.949-119.749-36.351-173.434,53.334-197.83,73.752" transform="translate(-405.19 -835.541)" fill="none" stroke="#702c8a" stroke-miterlimit="10" stroke-width="0.37"/>
      <path id="Path_6656" data-name="Path 6656" d="M897.924,1202.96s59.34-164.056-80.039-152.576a248.176,248.176,0,0,1-30.955.837c-92.024-3.98-58.5-103.317-160.048-134.4-117.169-35.868-170.356,50.976-196.108,72.529" transform="translate(-405.949 -835.541)" fill="none" stroke="#702c8a" stroke-miterlimit="10" stroke-width="0.37"/>
      <path id="Path_6657" data-name="Path 6657" d="M896.636,1202.655s59.073-162.074-79.286-151a255.942,255.942,0,0,1-30.651.829c-91.318-3.683-59.923-101.117-159.474-131.857-114.589-35.383-167.278,48.618-194.385,71.305" transform="translate(-406.708 -835.541)" fill="none" stroke="#702c8a" stroke-miterlimit="10" stroke-width="0.37"/>
      <path id="Path_6658" data-name="Path 6658" d="M895.348,1202.351s58.805-160.091-78.534-149.42a265.541,265.541,0,0,1-30.347.821c-90.61-3.388-61.348-98.918-158.9-129.312-112.008-34.9-164.2,46.26-192.662,70.082" transform="translate(-407.467 -835.541)" fill="none" stroke="#702c8a" stroke-miterlimit="10" stroke-width="0.37"/>
      <path id="Path_6659" data-name="Path 6659" d="M894.059,1202.046S952.6,1043.94,816.277,1054.2a275.557,275.557,0,0,1-30.042.812c-89.9-3.093-62.774-96.717-158.326-126.766-109.428-34.412-161.121,43.9-190.939,68.858" transform="translate(-408.225 -835.541)" fill="none" stroke="#702c8a" stroke-miterlimit="10" stroke-width="0.37"/>
      <path id="Path_6660" data-name="Path 6660" d="M892.77,1201.741s58.271-156.118-77.029-146.262a286.98,286.98,0,0,1-29.739.8c-89.2-2.8-64.2-94.516-157.751-124.219C521.4,898.137,470.208,973.607,439.034,999.7" transform="translate(-408.984 -835.541)" fill="none" stroke="#702c8a" stroke-miterlimit="10" stroke-width="0.37"/>
      <path id="Path_6661" data-name="Path 6661" d="M891.481,1201.436s58.005-154.128-76.277-144.683c-10.589.744-20.323,1.053-29.434.795-88.489-2.5-65.624-92.315-157.177-121.674C524.324,902.436,473.628,975.06,441.1,1002.285" transform="translate(-409.741 -835.541)" fill="none" stroke="#702c8a" stroke-miterlimit="10" stroke-width="0.37"/>
      <path id="Path_6662" data-name="Path 6662" d="M890.19,1201.131s57.739-152.137-75.524-143.1c-10.437.708-20.072,1.015-29.131.787-87.782-2.211-67.049-90.112-156.6-119.128-101.69-32.949-151.887,36.828-185.771,65.187" transform="translate(-410.498 -835.541)" fill="none" stroke="#702c8a" stroke-miterlimit="10" stroke-width="0.37"/>
      <path id="Path_6663" data-name="Path 6663" d="M888.9,1200.826s57.473-150.143-74.772-141.526c-10.285.67-19.82.977-28.826.778-87.075-1.918-68.475-87.908-156.028-116.582-99.111-32.459-148.809,34.47-184.049,63.964" transform="translate(-411.255 -835.542)" fill="none" stroke="#702c8a" stroke-miterlimit="10" stroke-width="0.37"/>
      <path id="Path_6664" data-name="Path 6664" d="M887.611,1200.521s57.207-148.146-74.019-139.947c-10.133.633-19.569.938-28.523.77-86.367-1.626-69.9-85.7-155.453-114.036-96.532-31.968-145.731,32.112-182.326,62.739" transform="translate(-412.012 -835.541)" fill="none" stroke="#702c8a" stroke-miterlimit="10" stroke-width="0.37"/>
      <path id="Path_6665" data-name="Path 6665" d="M886.321,1200.216s56.942-146.147-73.267-138.368c-9.98.6-19.318.9-28.219.761-85.659-1.334-71.326-83.5-154.879-111.49C536,919.643,487.3,980.873,449.353,1012.635" transform="translate(-412.769 -835.541)" fill="none" stroke="#702c8a" stroke-miterlimit="10" stroke-width="0.37"/>
      <path id="Path_6666" data-name="Path 6666" d="M885.03,1199.912s56.676-144.147-72.514-136.791c-9.829.56-19.067.862-27.915.753-84.952-1.043-72.753-81.292-154.3-108.944-91.375-30.982-139.574,27.4-178.88,60.292" transform="translate(-413.525 -835.541)" fill="none" stroke="#702c8a" stroke-miterlimit="10" stroke-width="0.37"/>
      <path id="Path_6667" data-name="Path 6667" d="M883.739,1199.607s56.411-142.143-71.762-135.212c-9.676.523-18.815.823-27.611.744-84.244-.753-74.178-79.084-153.73-106.4-88.8-30.487-136.5,25.038-177.157,59.069" transform="translate(-414.281 -835.541)" fill="none" stroke="#702c8a" stroke-miterlimit="10" stroke-width="0.37"/>
      <path id="Path_6668" data-name="Path 6668" d="M882.448,1199.3s56.147-140.136-71.01-133.633c-9.523.487-18.563.784-27.306.736-83.538-.464-75.6-76.876-153.156-103.852-86.219-29.992-133.418,22.68-175.435,57.844" transform="translate(-415.037 -835.541)" fill="none" stroke="#702c8a" stroke-miterlimit="10" stroke-width="0.37"/>
      <path id="Path_6669" data-name="Path 6669" d="M881.156,1199s55.882-138.126-70.257-132.054c-9.372.451-18.313.788-27,.727-82.828-.578-77.032-74.666-152.581-101.306-83.642-29.494-130.34,20.322-173.712,56.621" transform="translate(-415.792 -835.541)" fill="none" stroke="#702c8a" stroke-miterlimit="10" stroke-width="0.37"/>
      <path id="Path_6670" data-name="Path 6670" d="M879.865,1198.692s55.617-136.113-69.5-130.475c-9.219.415-18.061.748-26.7.718-82.122-.283-78.459-72.455-152.007-98.76-81.065-28.994-127.262,17.964-171.99,55.4" transform="translate(-416.548 -835.541)" fill="none" stroke="#702c8a" stroke-miterlimit="10" stroke-width="0.37"/>
      <path id="Path_6671" data-name="Path 6671" d="M878.572,1198.387s55.353-134.1-68.752-128.9c-9.067.38-17.81.668-26.4.711-81.415.4-79.887-70.242-151.432-96.215-78.489-28.492-124.184,15.606-170.267,54.174" transform="translate(-417.302 -835.541)" fill="none" stroke="#702c8a" stroke-miterlimit="10" stroke-width="0.37"/>
      <path id="Path_6672" data-name="Path 6672" d="M877.279,1198.082s55.089-132.077-68-127.318c-8.914.345-17.558.629-26.09.7-80.708.687-81.315-68.028-150.859-93.668-75.912-27.99-121.1,13.247-168.543,52.95" transform="translate(-418.056 -835.542)" fill="none" stroke="#702c8a" stroke-miterlimit="10" stroke-width="0.37"/>
      <path id="Path_6673" data-name="Path 6673" d="M875.987,1197.777s54.825-130.054-67.247-125.739c-8.763.31-17.308.59-25.787.693-80,.973-82.743-65.811-150.284-91.122-73.337-27.484-118.027,10.89-166.821,51.726" transform="translate(-418.811 -835.541)" fill="none" stroke="#702c8a" stroke-miterlimit="10" stroke-width="0.37"/>
      <path id="Path_6674" data-name="Path 6674" d="M874.693,1197.473s54.561-128.028-66.495-124.161c-8.61.275-17.056.551-25.482.685-79.294,1.258-84.173-63.593-149.71-88.577-70.763-26.976-114.949,8.532-165.1,50.5" transform="translate(-419.565 -835.542)" fill="none" stroke="#702c8a" stroke-miterlimit="10" stroke-width="0.37"/>
      <path id="Path_6675" data-name="Path 6675" d="M873.4,1197.168s54.3-126-65.742-122.583c-8.458.241-16.8.513-25.179.677-78.586,1.542-85.6-61.373-149.135-86.031-68.189-26.465-111.871,6.174-163.376,49.279" transform="translate(-420.319 -835.541)" fill="none" stroke="#702c8a" stroke-miterlimit="10" stroke-width="0.37"/>
      <path id="Path_6676" data-name="Path 6676" d="M872.107,1196.863s54.033-123.962-64.99-121c-8.3.207-16.554.473-24.874.668-77.879,1.826-87.034-59.149-148.561-83.485-65.617-25.952-108.793,3.816-161.653,48.056" transform="translate(-421.072 -835.541)" fill="none" stroke="#702c8a" stroke-miterlimit="10" stroke-width="0.37"/>
      <path id="Path_6677" data-name="Path 6677" d="M870.813,1196.558s53.769-121.922-64.237-119.425c-8.154.172-16.3.417-24.571.659-77.176,1.956-88.465-56.923-147.986-80.938-63.045-25.437-105.715,1.457-159.931,46.832" transform="translate(-421.826 -835.541)" fill="none" stroke="#702c8a" stroke-miterlimit="10" stroke-width="0.37"/>
      <path id="Path_6678" data-name="Path 6678" d="M869.519,1196.253s53.5-119.877-63.485-117.846c-8,.139-16.052.378-24.266.651-76.47,2.247-89.9-54.695-147.412-78.393-60.475-24.918-102.637-.9-158.208,45.608" transform="translate(-422.578 -835.541)" fill="none" stroke="#702c8a" stroke-miterlimit="10" stroke-width="0.37"/>
      <path id="Path_6679" data-name="Path 6679" d="M868.225,1195.948s53.24-117.828-62.733-116.268c-7.848.106-15.8.341-23.962.643-75.762,2.539-91.332-52.463-146.838-75.847-57.9-24.4-99.558-3.258-156.484,44.385" transform="translate(-423.331 -835.541)" fill="none" stroke="#702c8a" stroke-miterlimit="10" stroke-width="0.37"/>
      <path id="Path_6680" data-name="Path 6680" d="M866.931,1195.643s52.976-115.773-61.98-114.689c-7.7.073-15.549.3-23.659.634-75.055,2.83-92.768-50.227-146.263-73.3-55.338-23.868-96.48-5.616-154.762,43.161" transform="translate(-424.084 -835.541)" fill="none" stroke="#702c8a" stroke-miterlimit="10" stroke-width="0.37"/>
      <path id="Path_6681" data-name="Path 6681" d="M865.636,1195.338s52.711-113.712-61.228-113.11c-7.544.04-15.3.264-23.354.626-74.349,3.121-94.206-47.988-145.689-70.755-52.773-23.339-93.4-7.975-153.039,41.937" transform="translate(-424.836 -835.541)" fill="none" stroke="#702c8a" stroke-miterlimit="10" stroke-width="0.37"/>
      <path id="Path_6682" data-name="Path 6682" d="M864.343,1195.034s52.44-112.657-60.475-111.532c-7.392.073-15.047.225-23.051.617-73.642,3.413-95.646-45.743-145.114-68.209-50.21-22.8-90.324-10.333-151.317,40.713" transform="translate(-425.591 -835.541)" fill="none" stroke="#702c8a" stroke-miterlimit="10" stroke-width="0.37"/>
      <path id="Path_6683" data-name="Path 6683" d="M863.046,1194.729s52.179-110.453-59.723-109.953c-7.239.032-14.795.186-22.746.608-72.936,3.7-97.09-43.493-144.54-65.663-47.65-22.263-87.246-12.69-149.594,39.49" transform="translate(-426.34 -835.541)" fill="none" stroke="#702c8a" stroke-miterlimit="10" stroke-width="0.37"/>
      <path id="Path_6684" data-name="Path 6684" d="M861.751,1194.424s51.913-107.494-58.97-108.375c-7.088-.056-14.545.149-22.443.6-72.229,4-98.537-41.238-143.965-63.118-45.094-21.718-84.168-15.048-147.871,38.266" transform="translate(-427.092 -835.541)" fill="none" stroke="#702c8a" stroke-miterlimit="10" stroke-width="0.37"/>
      <path id="Path_6685" data-name="Path 6685" d="M860.456,1194.119s51.646-105.407-58.218-106.8c-6.935-.088-14.293.11-22.138.592-71.522,4.288-99.988-38.975-143.392-60.571-42.54-21.168-81.09-17.407-146.148,37.042" transform="translate(-427.845 -835.541)" fill="none" stroke="#702c8a" stroke-miterlimit="10" stroke-width="0.37"/>
      <path id="Path_6686" data-name="Path 6686" d="M859.162,1193.814S910.537,1090.7,801.7,1088.6c-6.784-.106-14.042.071-21.835.583-70.815,4.579-101.444-36.7-142.817-58.025-39.992-20.61-78.012-19.765-144.425,35.819" transform="translate(-428.597 -835.541)" fill="none" stroke="#702c8a" stroke-miterlimit="10" stroke-width="0.37"/>
      <path id="Path_6687" data-name="Path 6687" d="M857.867,1193.509s51.107-101.106-56.713-103.638c-6.632-.143-13.791.033-21.53.574-70.109,4.871-102.948-34.349-142.243-55.479-37.488-19.973-74.934-22.123-142.7,34.6" transform="translate(-429.349 -835.541)" fill="none" stroke="#702c8a" stroke-miterlimit="10" stroke-width="0.37"/>
      <path id="Path_6688" data-name="Path 6688" d="M856.571,1193.2s57.2-111.489-77.187-101.493-139.7-139.2-282.648-19.562" transform="translate(-430.1 -835.541)" fill="none" stroke="#702c8a" stroke-miterlimit="10" stroke-width="0.37"/>
    </g>
  </g>
</svg>
