<svg xmlns="http://www.w3.org/2000/svg" xmlns:xlink="http://www.w3.org/1999/xlink" width="482" height="360" viewBox="0 0 482 360">
  <defs>
    <clipPath id="clip-path">
      <rect id="Rectangle_734" data-name="Rectangle 734" width="482" height="360" transform="translate(-7604 8897)" fill="rgba(255,255,255,0)"/>
    </clipPath>
  </defs>
  <g id="Mask_Group_3" data-name="Mask Group 3" transform="translate(7604 -8897)" clip-path="url(#clip-path)">
    <g id="Group_797" data-name="Group 797" transform="translate(-7600.88 8899)" opacity="0.15">
      <path id="Path_6637" data-name="Path 6637" d="M404.432,1208.753s-64.481-201.451,94.336-182.571S553.19,885.869,706.461,844.4c166.2-44.962,228.839,95.779,228.839,95.779" transform="translate(-391.483 -835.541)" fill="none" stroke="#702c8a" stroke-miterlimit="10" stroke-width="0.37"/>
      <path id="Path_6638" data-name="Path 6638" d="M406.479,1208.448S342.266,1009,500.062,1027.456a178.069,178.069,0,0,0,36.427.99c104.737-9.414,32.857-142.814,170.388-180.23,163.626-44.463,225.761,93.42,227.117,94.555" transform="translate(-391.483 -835.541)" fill="none" stroke="#702c8a" stroke-miterlimit="10" stroke-width="0.37"/>
      <path id="Path_6639" data-name="Path 6639" d="M408.526,1208.143s-63.946-197.437,92.831-179.413a179.7,179.7,0,0,0,36.123.981c104.03-9.122,34.287-140.6,169.813-177.684,161.052-43.963,222.683,91.062,225.394,93.331" transform="translate(-391.483 -835.541)" fill="none" stroke="#702c8a" stroke-miterlimit="10" stroke-width="0.37"/>
      <path id="Path_6640" data-name="Path 6640" d="M410.573,1207.838S346.9,1012.408,502.651,1030a181.477,181.477,0,0,0,35.819.973c103.324-8.831,35.718-138.386,169.239-175.138,158.478-43.463,219.6,88.705,223.671,92.108" transform="translate(-391.483 -835.541)" fill="none" stroke="#702c8a" stroke-miterlimit="10" stroke-width="0.37"/>
      <path id="Path_6641" data-name="Path 6641" d="M412.62,1207.533s-63.411-193.423,91.326-176.256a183.519,183.519,0,0,0,35.515.965c102.616-8.54,37.148-136.174,168.664-172.593,155.9-42.963,216.527,86.347,221.949,90.884" transform="translate(-391.483 -835.541)" fill="none" stroke="#702c8a" stroke-miterlimit="10" stroke-width="0.37"/>
      <path id="Path_6642" data-name="Path 6642" d="M414.667,1207.228s-63.143-191.416,90.573-174.677a185.563,185.563,0,0,0,35.211.956c101.91-8.248,38.579-133.96,168.09-170.046C861.871,821,921.99,947.449,928.767,953.121" transform="translate(-391.483 -835.541)" fill="none" stroke="#702c8a" stroke-miterlimit="10" stroke-width="0.37"/>
      <path id="Path_6643" data-name="Path 6643" d="M416.714,1206.924s-62.876-189.41,89.821-173.1a187.813,187.813,0,0,0,34.907.947c101.2-7.956,40.009-131.746,167.515-167.5,150.756-41.964,210.371,81.63,218.5,88.436" transform="translate(-391.483 -835.541)" fill="none" stroke="#702c8a" stroke-miterlimit="10" stroke-width="0.37"/>
      <path id="Path_6644" data-name="Path 6644" d="M418.761,1206.619S356.186,1018.9,507.829,1035.1a192.751,192.751,0,0,0,34.6.94c100.5-7.665,41.44-129.533,166.942-164.955,148.181-41.464,207.292,79.272,216.78,87.213" transform="translate(-391.483 -835.541)" fill="none" stroke="#702c8a" stroke-miterlimit="10" stroke-width="0.37"/>
      <path id="Path_6645" data-name="Path 6645" d="M420.808,1206.314s-62.3-185.758,88.316-169.942a195.754,195.754,0,0,0,34.3.931c99.79-7.373,42.87-127.319,166.367-162.409C855.4,833.93,914,951.809,924.847,960.884" transform="translate(-391.483 -835.541)" fill="none" stroke="#702c8a" stroke-miterlimit="10" stroke-width="0.37"/>
      <path id="Path_6646" data-name="Path 6646" d="M422.855,1206.009s-62.033-183.791,87.563-168.363a199.021,199.021,0,0,0,33.995.922c99.084-7.082,44.3-125.105,165.793-159.863,143.033-40.464,201.136,74.557,213.335,84.766" transform="translate(-391.483 -835.541)" fill="none" stroke="#702c8a" stroke-miterlimit="10" stroke-width="0.37"/>
      <path id="Path_6647" data-name="Path 6647" d="M424.9,1205.7S363.14,1023.88,511.713,1038.92a202.553,202.553,0,0,0,33.691.913c98.376-6.79,45.731-122.891,165.218-157.316,140.458-39.965,198.058,72.2,211.612,83.542" transform="translate(-391.483 -835.541)" fill="none" stroke="#702c8a" stroke-miterlimit="10" stroke-width="0.37"/>
      <path id="Path_6648" data-name="Path 6648" d="M426.949,1205.4s-61.492-179.855,86.059-165.205a206.374,206.374,0,0,0,33.386.905c97.67-6.5,47.162-120.679,164.644-154.771,137.884-39.465,194.98,69.84,209.89,82.318" transform="translate(-391.483 -835.541)" fill="none" stroke="#702c8a" stroke-miterlimit="10" stroke-width="0.37"/>
      <path id="Path_6649" data-name="Path 6649" d="M429,1205.094s-61.222-177.885,85.306-163.627a210.444,210.444,0,0,0,33.083.9c96.963-6.207,48.524-118.7,164.069-152.225,135.231-39.238,191.9,67.483,208.167,81.1" transform="translate(-391.483 -835.541)" fill="none" stroke="#702c8a" stroke-miterlimit="10" stroke-width="0.37"/>
      <path id="Path_6650" data-name="Path 6650" d="M431.043,1204.789s-60.952-175.914,84.554-162.048a214.949,214.949,0,0,0,32.778.888c96.257-5.915,49.949-116.5,163.5-149.679,132.651-38.758,188.824,65.125,206.444,79.871" transform="translate(-391.483 -835.541)" fill="none" stroke="#702c8a" stroke-miterlimit="10" stroke-width="0.37"/>
      <path id="Path_6651" data-name="Path 6651" d="M433.09,1204.485s-60.683-173.942,83.8-160.47a219.773,219.773,0,0,0,32.475.88c95.55-5.624,51.374-114.306,162.921-147.133,130.069-38.279,185.746,62.766,204.721,78.647" transform="translate(-391.483 -835.541)" fill="none" stroke="#702c8a" stroke-miterlimit="10" stroke-width="0.37"/>
      <path id="Path_6652" data-name="Path 6652" d="M435.137,1204.18s-60.414-171.968,83.049-158.891a225.169,225.169,0,0,0,32.171.871c94.843-5.333,52.8-112.109,162.346-144.587,127.489-37.8,182.668,60.408,203,77.423" transform="translate(-391.483 -835.541)" fill="none" stroke="#702c8a" stroke-miterlimit="10" stroke-width="0.37"/>
      <path id="Path_6653" data-name="Path 6653" d="M437.184,1203.875s-60.145-169.992,82.3-157.313a230.678,230.678,0,0,0,31.867.863c94.137-5.041,54.223-109.911,161.772-142.041,124.909-37.316,179.59,58.05,201.276,76.2" transform="translate(-391.483 -835.541)" fill="none" stroke="#702c8a" stroke-miterlimit="10" stroke-width="0.37"/>
      <path id="Path_6654" data-name="Path 6654" d="M439.231,1203.57s-59.876-168.015,81.544-155.734a237.222,237.222,0,0,0,31.563.855c93.429-4.75,55.648-107.714,161.2-139.5,122.329-36.833,176.512,55.693,199.553,74.977" transform="translate(-391.483 -835.541)" fill="none" stroke="#702c8a" stroke-miterlimit="10" stroke-width="0.37"/>
      <path id="Path_6655" data-name="Path 6655" d="M441.278,1203.265s-59.608-166.036,80.791-154.155a244.271,244.271,0,0,0,31.259.846C646.051,1045.5,610.4,944.44,713.951,913.007c119.749-36.351,173.434,53.334,197.83,73.752" transform="translate(-391.483 -835.541)" fill="none" stroke="#702c8a" stroke-miterlimit="10" stroke-width="0.37"/>
      <path id="Path_6656" data-name="Path 6656" d="M443.325,1202.96s-59.34-164.056,80.039-152.576a248.176,248.176,0,0,0,30.955.837c92.024-3.98,58.5-103.317,160.048-134.4,117.169-35.868,170.356,50.976,196.108,72.529" transform="translate(-391.483 -835.541)" fill="none" stroke="#702c8a" stroke-miterlimit="10" stroke-width="0.37"/>
      <path id="Path_6657" data-name="Path 6657" d="M445.372,1202.655s-59.073-162.074,79.286-151a255.942,255.942,0,0,0,30.651.829c91.318-3.683,59.923-101.117,159.474-131.857,114.589-35.383,167.278,48.618,194.385,71.3" transform="translate(-391.483 -835.541)" fill="none" stroke="#702c8a" stroke-miterlimit="10" stroke-width="0.37"/>
      <path id="Path_6658" data-name="Path 6658" d="M447.419,1202.351s-58.805-160.091,78.534-149.42a265.541,265.541,0,0,0,30.347.821c90.61-3.388,61.348-98.918,158.9-129.312,112.008-34.9,164.2,46.26,192.662,70.082" transform="translate(-391.483 -835.541)" fill="none" stroke="#702c8a" stroke-miterlimit="10" stroke-width="0.37"/>
      <path id="Path_6659" data-name="Path 6659" d="M449.466,1202.046S390.928,1043.94,527.248,1054.2a275.557,275.557,0,0,0,30.042.812c89.9-3.093,62.774-96.717,158.326-126.766,109.428-34.412,161.121,43.9,190.939,68.858" transform="translate(-391.483 -835.541)" fill="none" stroke="#702c8a" stroke-miterlimit="10" stroke-width="0.37"/>
      <path id="Path_6660" data-name="Path 6660" d="M451.513,1201.741s-58.271-156.118,77.029-146.262a286.98,286.98,0,0,0,29.739.8c89.2-2.8,64.2-94.516,157.751-124.219,106.849-33.926,158.043,41.544,189.217,67.634" transform="translate(-391.483 -835.541)" fill="none" stroke="#702c8a" stroke-miterlimit="10" stroke-width="0.37"/>
      <path id="Path_6661" data-name="Path 6661" d="M453.56,1201.436s-58.005-154.128,76.277-144.683c10.589.744,20.323,1.053,29.434.795,88.489-2.5,65.624-92.315,157.177-121.674,104.269-33.438,154.965,39.186,187.494,66.411" transform="translate(-391.483 -835.541)" fill="none" stroke="#702c8a" stroke-miterlimit="10" stroke-width="0.37"/>
      <path id="Path_6662" data-name="Path 6662" d="M455.607,1201.131s-57.739-152.137,75.524-143.1c10.437.708,20.072,1.015,29.131.787,87.782-2.211,67.049-90.112,156.6-119.128,101.69-32.949,151.887,36.828,185.771,65.187" transform="translate(-391.483 -835.541)" fill="none" stroke="#702c8a" stroke-miterlimit="10" stroke-width="0.37"/>
      <path id="Path_6663" data-name="Path 6663" d="M457.654,1200.826s-57.473-150.143,74.772-141.526c10.285.67,19.82.977,28.826.778,87.075-1.918,68.475-87.908,156.028-116.582,99.111-32.459,148.809,34.47,184.049,63.964" transform="translate(-391.483 -835.541)" fill="none" stroke="#702c8a" stroke-miterlimit="10" stroke-width="0.37"/>
      <path id="Path_6664" data-name="Path 6664" d="M459.7,1200.521s-57.207-148.146,74.019-139.947c10.133.633,19.569.938,28.523.77,86.367-1.626,69.9-85.7,155.453-114.036,96.532-31.968,145.731,32.112,182.326,62.739" transform="translate(-391.483 -835.541)" fill="none" stroke="#702c8a" stroke-miterlimit="10" stroke-width="0.37"/>
      <path id="Path_6665" data-name="Path 6665" d="M461.748,1200.216s-56.942-146.147,73.267-138.368c9.98.6,19.318.9,28.219.761,85.659-1.334,71.326-83.5,154.879-111.49,93.953-31.476,142.652,29.754,180.6,61.516" transform="translate(-391.483 -835.541)" fill="none" stroke="#702c8a" stroke-miterlimit="10" stroke-width="0.37"/>
      <path id="Path_6666" data-name="Path 6666" d="M463.795,1199.912s-56.676-144.147,72.514-136.791c9.829.56,19.067.862,27.915.753,84.952-1.043,72.753-81.292,154.3-108.944,91.375-30.982,139.574,27.4,178.88,60.292" transform="translate(-391.483 -835.541)" fill="none" stroke="#702c8a" stroke-miterlimit="10" stroke-width="0.37"/>
      <path id="Path_6667" data-name="Path 6667" d="M465.842,1199.607S409.431,1057.464,537.6,1064.4c9.676.523,18.815.823,27.611.744,84.244-.753,74.178-79.084,153.73-106.4,88.8-30.487,136.5,25.038,177.157,59.069" transform="translate(-391.483 -835.541)" fill="none" stroke="#702c8a" stroke-miterlimit="10" stroke-width="0.37"/>
      <path id="Path_6668" data-name="Path 6668" d="M467.889,1199.3s-56.147-140.136,71.01-133.633c9.523.487,18.563.784,27.306.736,83.538-.464,75.6-76.876,153.156-103.852,86.219-29.992,133.418,22.68,175.435,57.844" transform="translate(-391.483 -835.541)" fill="none" stroke="#702c8a" stroke-miterlimit="10" stroke-width="0.37"/>
      <path id="Path_6669" data-name="Path 6669" d="M469.936,1199s-55.882-138.126,70.257-132.054c9.372.451,18.313.788,27,.727,82.828-.578,77.032-74.666,152.581-101.306,83.642-29.494,130.34,20.322,173.712,56.621" transform="translate(-391.483 -835.541)" fill="none" stroke="#702c8a" stroke-miterlimit="10" stroke-width="0.37"/>
      <path id="Path_6670" data-name="Path 6670" d="M471.983,1198.692s-55.617-136.113,69.5-130.475c9.219.415,18.061.748,26.7.718,82.122-.283,78.459-72.455,152.007-98.76,81.065-28.994,127.262,17.964,171.99,55.4" transform="translate(-391.483 -835.541)" fill="none" stroke="#702c8a" stroke-miterlimit="10" stroke-width="0.37"/>
      <path id="Path_6671" data-name="Path 6671" d="M474.03,1198.387s-55.353-134.1,68.752-128.9c9.067.38,17.81.668,26.4.711,81.415.4,79.887-70.242,151.432-96.215,78.489-28.492,124.184,15.606,170.267,54.174" transform="translate(-391.483 -835.541)" fill="none" stroke="#702c8a" stroke-miterlimit="10" stroke-width="0.37"/>
      <path id="Path_6672" data-name="Path 6672" d="M476.077,1198.082s-55.089-132.077,68-127.318c8.914.345,17.558.629,26.09.7,80.708.687,81.315-68.028,150.859-93.668,75.912-27.99,121.1,13.247,168.543,52.95" transform="translate(-391.483 -835.541)" fill="none" stroke="#702c8a" stroke-miterlimit="10" stroke-width="0.37"/>
      <path id="Path_6673" data-name="Path 6673" d="M478.124,1197.777s-54.825-130.054,67.247-125.739c8.763.31,17.308.59,25.787.693,80,.973,82.743-65.811,150.284-91.122,73.337-27.484,118.027,10.89,166.821,51.726" transform="translate(-391.483 -835.541)" fill="none" stroke="#702c8a" stroke-miterlimit="10" stroke-width="0.37"/>
      <path id="Path_6674" data-name="Path 6674" d="M480.171,1197.473s-54.561-128.028,66.495-124.161c8.61.275,17.056.551,25.482.685,79.294,1.258,84.173-63.593,149.71-88.577,70.763-26.976,114.949,8.532,165.1,50.5" transform="translate(-391.483 -835.541)" fill="none" stroke="#702c8a" stroke-miterlimit="10" stroke-width="0.37"/>
      <path id="Path_6675" data-name="Path 6675" d="M482.218,1197.168s-54.3-126,65.742-122.583c8.458.241,16.8.513,25.179.677,78.586,1.542,85.6-61.373,149.135-86.031,68.189-26.465,111.871,6.174,163.376,49.279" transform="translate(-391.483 -835.541)" fill="none" stroke="#702c8a" stroke-miterlimit="10" stroke-width="0.37"/>
      <path id="Path_6676" data-name="Path 6676" d="M484.265,1196.863s-54.033-123.962,64.99-121c8.3.207,16.554.473,24.874.668,77.879,1.826,87.034-59.149,148.561-83.485,65.617-25.952,108.793,3.816,161.653,48.056" transform="translate(-391.483 -835.541)" fill="none" stroke="#702c8a" stroke-miterlimit="10" stroke-width="0.37"/>
      <path id="Path_6677" data-name="Path 6677" d="M486.312,1196.558s-53.769-121.922,64.237-119.425c8.154.172,16.3.417,24.571.659,77.176,1.956,88.465-56.923,147.986-80.938,63.045-25.437,105.715,1.457,159.931,46.832" transform="translate(-391.483 -835.541)" fill="none" stroke="#702c8a" stroke-miterlimit="10" stroke-width="0.37"/>
      <path id="Path_6678" data-name="Path 6678" d="M488.359,1196.253s-53.5-119.877,63.485-117.846c8,.139,16.052.378,24.266.651,76.47,2.247,89.9-54.695,147.412-78.393,60.475-24.918,102.637-.9,158.208,45.608" transform="translate(-391.483 -835.541)" fill="none" stroke="#702c8a" stroke-miterlimit="10" stroke-width="0.37"/>
      <path id="Path_6679" data-name="Path 6679" d="M490.406,1195.948s-53.24-117.828,62.733-116.268c7.848.106,15.8.341,23.962.643,75.762,2.539,91.332-52.463,146.838-75.847,57.9-24.4,99.558-3.258,156.484,44.385" transform="translate(-391.483 -835.541)" fill="none" stroke="#702c8a" stroke-miterlimit="10" stroke-width="0.37"/>
      <path id="Path_6680" data-name="Path 6680" d="M492.453,1195.643s-52.976-115.773,61.98-114.689c7.7.073,15.549.3,23.659.634,75.055,2.83,92.768-50.227,146.263-73.3,55.338-23.868,96.48-5.616,154.762,43.161" transform="translate(-391.483 -835.541)" fill="none" stroke="#702c8a" stroke-miterlimit="10" stroke-width="0.37"/>
      <path id="Path_6681" data-name="Path 6681" d="M494.5,1195.338s-52.711-113.712,61.228-113.11c7.544.04,15.3.264,23.354.626,74.349,3.121,94.206-47.988,145.689-70.755,52.773-23.339,93.4-7.975,153.039,41.937" transform="translate(-391.483 -835.541)" fill="none" stroke="#702c8a" stroke-miterlimit="10" stroke-width="0.37"/>
      <path id="Path_6682" data-name="Path 6682" d="M496.547,1195.034s-52.44-112.657,60.475-111.532c7.392.073,15.047.225,23.051.617,73.642,3.413,95.646-45.743,145.114-68.209,50.21-22.8,90.324-10.333,151.317,40.713" transform="translate(-391.483 -835.541)" fill="none" stroke="#702c8a" stroke-miterlimit="10" stroke-width="0.37"/>
      <path id="Path_6683" data-name="Path 6683" d="M498.594,1194.729s-52.179-110.453,59.723-109.953c7.239.032,14.795.186,22.746.608,72.936,3.7,97.09-43.493,144.54-65.663,47.65-22.263,87.246-12.69,149.594,39.49" transform="translate(-391.483 -835.541)" fill="none" stroke="#702c8a" stroke-miterlimit="10" stroke-width="0.37"/>
      <path id="Path_6684" data-name="Path 6684" d="M500.641,1194.424s-51.913-107.494,58.97-108.375c7.088-.056,14.545.149,22.443.6,72.229,4,98.537-41.238,143.965-63.118,45.094-21.718,84.168-15.048,147.871,38.266" transform="translate(-391.483 -835.541)" fill="none" stroke="#702c8a" stroke-miterlimit="10" stroke-width="0.37"/>
      <path id="Path_6685" data-name="Path 6685" d="M502.688,1194.119s-51.646-105.407,58.218-106.8c6.935-.088,14.293.11,22.138.592,71.522,4.288,99.988-38.975,143.392-60.571,42.54-21.168,81.09-17.407,146.148,37.042" transform="translate(-391.483 -835.541)" fill="none" stroke="#702c8a" stroke-miterlimit="10" stroke-width="0.37"/>
      <path id="Path_6686" data-name="Path 6686" d="M504.735,1193.814S453.36,1090.7,562.2,1088.6c6.784-.106,14.042.071,21.835.583,70.815,4.579,101.444-36.7,142.817-58.025,39.992-20.61,78.012-19.765,144.425,35.819" transform="translate(-391.483 -835.541)" fill="none" stroke="#702c8a" stroke-miterlimit="10" stroke-width="0.37"/>
      <path id="Path_6687" data-name="Path 6687" d="M506.782,1193.509s-51.107-101.106,56.713-103.638c6.632-.143,13.791.033,21.53.574,70.109,4.871,102.948-34.349,142.243-55.479,37.488-19.973,74.934-22.123,142.7,34.6" transform="translate(-391.483 -835.541)" fill="none" stroke="#702c8a" stroke-miterlimit="10" stroke-width="0.37"/>
      <path id="Path_6688" data-name="Path 6688" d="M508.829,1193.2s-57.2-111.489,77.187-101.493,139.7-139.2,282.648-19.562" transform="translate(-391.483 -835.541)" fill="none" stroke="#702c8a" stroke-miterlimit="10" stroke-width="0.37"/>
    </g>
  </g>
</svg>
