<svg xmlns="http://www.w3.org/2000/svg" width="71.207" height="70" viewBox="0 0 71.207 70">
  <path id="Path_6802" data-name="Path 6802" d="M63.911,7.172a25.216,25.216,0,0,0-35.229,0A24.192,24.192,0,0,0,27.267,40.3L22.23,45.247a6.962,6.962,0,0,0-8,1.225L2.01,58.486a6.667,6.667,0,0,0,0,9.541,6.954,6.954,0,0,0,9.7,0L23.935,56.013a6.669,6.669,0,0,0,1.247-7.867L30.217,43.2a25.23,25.23,0,0,0,33.694-1.391,24.2,24.2,0,0,0,0-34.634ZM37.812,33.24a2.086,2.086,0,0,1-4.172,0V26.676a2.086,2.086,0,0,1,4.172,0Zm6.954,0a2.086,2.086,0,0,1-4.172,0V19.84a2.086,2.086,0,0,1,4.172,0Zm6.954,0a2.086,2.086,0,0,1-4.172,0V22.575a2.086,2.086,0,0,1,4.172,0Zm6.954,0a2.086,2.086,0,0,1-4.172,0v-17.5a2.086,2.086,0,0,1,4.172,0Z" fill="#183787"/>
</svg>
