<svg id="Group_792" data-name="Group 792" xmlns="http://www.w3.org/2000/svg" width="70" height="70" viewBox="0 0 70 70">
  <circle id="Ellipse_201" data-name="Ellipse 201" cx="4.375" cy="4.375" r="4.375" transform="translate(11.667 11.667)" fill="#fcb614"/>
  <path id="Path_6820" data-name="Path 6820" d="M7.292,0h18.5a13.039,13.039,0,0,1,9.281,3.844L67.512,36.283a8.5,8.5,0,0,1,0,12.017L48.3,67.512a8.5,8.5,0,0,1-12.017,0L3.844,35.073A13.039,13.039,0,0,1,0,25.792V7.292A7.3,7.3,0,0,1,7.292,0Zm8.75,23.333A7.292,7.292,0,1,0,8.75,16.042,7.3,7.3,0,0,0,16.042,23.333Z" fill="#fcb614"/>
</svg>
