<svg id="Group_790" data-name="Group 790" xmlns="http://www.w3.org/2000/svg" width="70" height="70" viewBox="0 0 70 70">
  <g id="Group_783" data-name="Group 783">
    <g id="Group_782" data-name="Group 782">
      <path id="Path_6803" data-name="Path 6803" d="M67.949,0h-8.34a2.05,2.05,0,0,0-2.051,2.051V4.1H40.775a6.116,6.116,0,0,0-11.549,0H12.441V2.051A2.05,2.05,0,0,0,10.391,0H2.051A2.05,2.05,0,0,0,0,2.051v8.2A2.05,2.05,0,0,0,2.051,12.3h8.34a2.05,2.05,0,0,0,2.051-2.051V8.176h8.422a26.753,26.753,0,0,0-12.371,21,6.134,6.134,0,1,0,4.093.093A22.5,22.5,0,0,1,29.555,8.955a6.1,6.1,0,0,0,10.89,0A22.5,22.5,0,0,1,57.414,29.27a6.17,6.17,0,1,0,4.093-.093A26.7,26.7,0,0,0,49.136,8.2h8.422v2.051A2.05,2.05,0,0,0,59.609,12.3h8.34A2.05,2.05,0,0,0,70,10.254v-8.2A2.05,2.05,0,0,0,67.949,0Z" fill="#183787"/>
    </g>
  </g>
  <g id="Group_785" data-name="Group 785" transform="translate(20.958 61.66)">
    <g id="Group_784" data-name="Group 784">
      <path id="Path_6804" data-name="Path 6804" d="M181.288,456.8a8.34,8.34,0,0,0-7.8-5.8h-12.3a8.34,8.34,0,0,0-7.8,5.8,2.02,2.02,0,0,0,1.995,2.544h23.915A2.02,2.02,0,0,0,181.288,456.8Z" transform="translate(-153.294 -451)" fill="#183787"/>
    </g>
  </g>
  <g id="Group_787" data-name="Group 787" transform="translate(16.543 17.973)">
    <g id="Group_786" data-name="Group 786">
      <path id="Path_6805" data-name="Path 6805" d="M157.569,155.552l-16.062-24.093v19.456a6.152,6.152,0,1,1-4.1,0V131.459l-16.062,24.093a2.05,2.05,0,0,0,.256,2.588,25.9,25.9,0,0,1,7.1,13.817,12.212,12.212,0,0,1,4.6-.912h12.3a12.214,12.214,0,0,1,4.6.912,25.894,25.894,0,0,1,7.1-13.817A2.05,2.05,0,0,0,157.569,155.552Z" transform="translate(-121 -131.459)" fill="#183787"/>
    </g>
  </g>
  <g id="Group_789" data-name="Group 789" transform="translate(32.949 41.152)">
    <g id="Group_788" data-name="Group 788">
      <path id="Path_6806" data-name="Path 6806" d="M243.051,301a2.051,2.051,0,1,0,2.051,2.051A2.052,2.052,0,0,0,243.051,301Z" transform="translate(-241 -301)" fill="#183787"/>
    </g>
  </g>
</svg>
