<svg xmlns="http://www.w3.org/2000/svg" width="67.649" height="70" viewBox="0 0 67.649 70">
  <g id="Group_793" data-name="Group 793" transform="translate(-8.599)">
    <path id="Path_6823" data-name="Path 6823" d="M74.2,130.645H72.146V86.613a1.359,1.359,0,0,0-1.359-1.359H67.015a1.359,1.359,0,0,0-1.359,1.359v44.031h-4.1V103.156A1.359,1.359,0,0,0,60.2,101.8h-3.77a1.359,1.359,0,0,0-1.359,1.359v27.488h-4.1v-16a1.359,1.359,0,0,0-1.359-1.359H45.834a1.359,1.359,0,0,0-1.359,1.359v16h-4.1V103.019a1.359,1.359,0,0,0-1.359-1.359H35.242a1.359,1.359,0,0,0-1.359,1.359v27.625h-4.1v-16a1.359,1.359,0,0,0-1.359-1.359h-3.77a1.359,1.359,0,0,0-1.359,1.359v16h-4.1V125.1a1.359,1.359,0,0,0-1.359-1.359H12.7V77.051a2.051,2.051,0,1,0-4.1,0V132.7a2.051,2.051,0,0,0,2.051,2.051H74.2a2.051,2.051,0,1,0,0-4.1Z" transform="translate(0 -64.746)" fill="#702c8a"/>
    <path id="Path_6824" data-name="Path 6824" d="M71.576,30.054,84.061,17.569,96,27.069a2.05,2.05,0,0,0,2.727-.155L118.642,7V8.759a2.051,2.051,0,0,0,4.1,0V2.051A2.054,2.054,0,0,0,120.693,0h-6.708a2.051,2.051,0,0,0,0,4.1h1.757L97.124,22.72l-11.941-9.5a2.051,2.051,0,0,0-2.727.155L68.676,27.154a2.051,2.051,0,0,0,2.9,2.9Z" transform="translate(-51.345)" fill="#702c8a"/>
  </g>
</svg>
