<svg xmlns="http://www.w3.org/2000/svg" width="70" height="70" viewBox="0 0 70 70">
  <path id="Path_6822" data-name="Path 6822" d="M62.364,0a7.635,7.635,0,0,0-6.712,11.276l-12.51,12.51a10.114,10.114,0,0,0-12.466,0l-9.761-9.761a5.024,5.024,0,0,0,.722-2.57,5.091,5.091,0,1,0-5.091,5.091,5.024,5.024,0,0,0,2.57-.722l9.761,9.761a10.117,10.117,0,0,0,0,12.466L12.758,54.17a7.559,7.559,0,1,0,1.591,2.008L30.677,39.85a10.122,10.122,0,0,0,4.961,2.061V54.842a7.636,7.636,0,1,0,2.545,0V41.911a10.122,10.122,0,0,0,4.961-2.061L52.9,49.611a5.021,5.021,0,0,0-.723,2.571,5.091,5.091,0,1,0,5.091-5.091,5.024,5.024,0,0,0-2.57.722l-9.761-9.761a10.117,10.117,0,0,0,0-12.466l12.3-12.3A7.631,7.631,0,1,0,62.364,0Z" fill="#183787"/>
</svg>
