<svg xmlns="http://www.w3.org/2000/svg" width="70.033" height="70" viewBox="0 0 70.033 70">
  <g id="Group_791" data-name="Group 791" transform="translate(0 -0.122)">
    <path id="Path_6815" data-name="Path 6815" d="M299.8,55.632,281.551,68.894l30.584,22.221A35,35,0,0,0,299.8,55.632Z" transform="translate(-243.039 -47.917)" fill="#702c8a"/>
    <path id="Path_6816" data-name="Path 6816" d="M152,5.228a34.948,34.948,0,0,0-37.553.75l6.975,21.466Z" transform="translate(-98.791)" fill="#702c8a"/>
    <path id="Path_6817" data-name="Path 6817" d="M12.193,62.132A34.993,34.993,0,0,0,1.284,98.069H23.871Z" transform="translate(0 -53.528)" fill="#702c8a"/>
    <path id="Path_6818" data-name="Path 6818" d="M19.817,354.862a35.08,35.08,0,0,0,30.826,21.477l6.978-21.477Z" transform="translate(-17.106 -306.217)" fill="#702c8a"/>
    <path id="Path_6819" data-name="Path 6819" d="M276.925,284.327a35.1,35.1,0,0,0,29.955-22.685l-18.271-13.275Z" transform="translate(-239.046 -214.289)" fill="#702c8a"/>
  </g>
</svg>
